<?xml version="1.0" encoding="UTF-8" standalone="no"?>
<svg
   xmlns:dc="http://purl.org/dc/elements/1.1/"
   xmlns:cc="http://creativecommons.org/ns#"
   xmlns:rdf="http://www.w3.org/1999/02/22-rdf-syntax-ns#"
   xmlns:svg="http://www.w3.org/2000/svg"
   xmlns="http://www.w3.org/2000/svg"
   xmlns:sodipodi="http://sodipodi.sourceforge.net/DTD/sodipodi-0.dtd"
   xmlns:inkscape="http://www.inkscape.org/namespaces/inkscape"
   width="200pt"
   height="200pt"
   viewBox="0 0 200 200"
   version="1.1"
   id="svg3336"
   inkscape:version="0.91 r13725"
   sodipodi:docname="toasty.svg">
  <metadata
     id="metadata3786">
    <rdf:RDF>
      <cc:Work
         rdf:about="">
        <dc:format>image/svg+xml</dc:format>
        <dc:type
           rdf:resource="http://purl.org/dc/dcmitype/StillImage" />
        <dc:title></dc:title>
      </cc:Work>
    </rdf:RDF>
  </metadata>
  <defs
     id="defs3784" />
  <sodipodi:namedview
     pagecolor="#ff00ff"
     bordercolor="#666666"
     borderopacity="1"
     objecttolerance="10"
     gridtolerance="10"
     guidetolerance="10"
     inkscape:pageopacity="0"
     inkscape:pageshadow="2"
     inkscape:window-width="1680"
     inkscape:window-height="987"
     id="namedview3782"
     showgrid="false"
     inkscape:zoom="2"
     inkscape:cx="92.12191"
     inkscape:cy="154.77207"
     inkscape:window-x="1912"
     inkscape:window-y="-8"
     inkscape:window-maximized="1"
     inkscape:current-layer="svg3336" />
  <path
     fill="#b9b6b3"
     d=" M 98.77 37.74 C 102.26 36.90 105.75 36.90 109.23 37.75 C 105.74 37.84 102.25 38.01 98.77 37.74 Z"
     id="path3340" />
  <path
     fill="#584a3f"
     d=" M 89.81 39.56 C 92.72 38.65 95.73 38.03 98.77 37.74 C 102.25 38.01 105.74 37.84 109.23 37.75 C 112.63 38.57 116.04 39.52 119.19 41.06 C 118.23 42.09 117.24 43.08 116.22 44.04 C 114.05 36.05 102.69 41.11 96.84 40.34 C 95.27 41.03 93.65 41.57 91.94 41.76 C 91.91 40.44 91.20 39.70 89.81 39.56 Z"
     id="path3342" />
  <path
     fill="#462e2d"
     d=" M 73.01 56.16 C 77.36 49.60 82.18 42.46 89.81 39.56 C 91.20 39.70 91.91 40.44 91.94 41.76 C 89.83 43.88 92.32 46.03 93.56 47.81 C 94.71 46.36 96.01 42.64 98.26 44.86 C 99.13 48.96 95.51 49.15 92.82 50.73 C 90.18 50.27 87.50 49.96 84.89 50.81 C 86.57 48.15 92.09 49.47 88.98 43.83 C 87.68 44.94 86.72 46.51 85.01 47.05 C 80.07 48.70 77.78 54.26 73.01 56.16 Z"
     id="path3344" />
  <path
     fill="#6a4f45"
     d=" M 91.94 41.76 C 93.65 41.57 95.27 41.03 96.84 40.34 C 99.35 43.52 104.13 44.01 107.12 46.86 C 104.00 47.26 100.89 46.58 98.26 44.86 C 96.01 42.64 94.71 46.36 93.56 47.81 C 92.32 46.03 89.83 43.88 91.94 41.76 Z"
     id="path3346" />
  <path
     fill="#786050"
     d=" M 96.84 40.34 C 102.69 41.11 114.05 36.05 116.22 44.04 C 115.52 44.95 115.56 46.04 115.73 47.11 C 113.26 48.47 110.50 46.97 107.89 46.98 L 107.12 46.86 C 104.13 44.01 99.35 43.52 96.84 40.34 Z"
     id="path3348" />
  <path
     fill="#665951"
     d=" M 119.19 41.06 C 121.05 41.90 122.69 43.13 124.24 44.44 C 123.86 45.01 123.09 46.17 122.71 46.75 C 120.51 46.69 119.71 48.32 119.22 50.19 C 119.63 47.49 118.33 46.47 115.73 47.11 C 115.56 46.04 115.52 44.95 116.22 44.04 C 117.24 43.08 118.23 42.09 119.19 41.06 Z"
     id="path3350" />
  <path
     fill="#241516"
     d=" M 85.01 47.05 C 86.72 46.51 87.68 44.94 88.98 43.83 C 92.09 49.47 86.57 48.15 84.89 50.81 C 84.71 51.14 84.33 51.79 84.15 52.11 C 83.99 52.47 83.67 53.17 83.50 53.52 C 82.87 54.23 82.29 54.98 81.76 55.78 C 79.35 59.44 76.93 63.34 76.59 67.82 C 74.22 70.62 75.66 74.73 74.02 77.90 C 72.52 81.73 71.04 85.57 70.76 89.72 C 69.91 90.12 69.06 90.53 68.21 90.95 C 68.15 90.22 68.03 88.76 67.97 88.03 C 67.92 83.94 67.85 79.85 67.77 75.77 C 69.95 69.35 69.76 62.03 73.01 56.16 C 77.78 54.26 80.07 48.70 85.01 47.05 Z"
     id="path3352" />
  <path
     fill="#563929"
     d=" M 98.26 44.86 C 100.89 46.58 104.00 47.26 107.12 46.86 L 107.89 46.98 C 107.75 51.02 113.96 47.13 114.47 50.88 C 110.31 50.93 106.14 51.00 101.99 51.07 C 102.17 52.75 102.60 54.40 102.86 56.07 C 100.33 55.73 96.62 57.20 95.62 54.26 C 95.40 54.44 94.95 54.79 94.73 54.97 C 92.57 51.31 87.82 51.15 84.15 52.11 C 84.33 51.79 84.71 51.14 84.89 50.81 C 87.50 49.96 90.18 50.27 92.82 50.73 C 95.51 49.15 99.13 48.96 98.26 44.86 Z"
     id="path3354" />
  <path
     fill="#574136"
     d=" M 122.71 46.75 C 123.09 46.17 123.86 45.01 124.24 44.44 L 124.95 44.99 C 124.96 46.50 124.97 49.51 124.97 51.01 C 122.09 51.90 123.17 48.42 122.71 46.75 Z"
     id="path3356" />
  <path
     fill="#816655"
     d=" M 124.95 44.99 C 130.81 51.56 138.33 57.25 141.10 65.96 C 138.12 65.24 135.33 63.16 132.16 63.83 C 131.83 63.61 131.17 63.17 130.83 62.95 C 130.79 60.72 132.03 58.93 133.64 57.50 C 132.93 54.16 127.77 59.20 127.82 55.12 C 126.81 51.85 121.66 53.72 122.95 57.03 C 122.45 56.69 121.47 56.00 120.97 55.65 C 121.30 53.79 120.84 52.82 118.95 53.74 C 119.03 52.56 119.13 51.37 119.22 50.19 C 119.71 48.32 120.51 46.69 122.71 46.75 C 123.17 48.42 122.09 51.90 124.97 51.01 C 124.97 49.51 124.96 46.50 124.95 44.99 Z"
     id="path3358" />
  <path
     fill="#68503d"
     d=" M 107.89 46.98 C 110.50 46.97 113.26 48.47 115.73 47.11 C 116.45 49.40 117.56 51.55 118.17 53.88 C 117.60 53.72 116.46 53.39 115.89 53.23 C 116.07 51.98 115.59 51.20 114.47 50.88 C 113.96 47.13 107.75 51.02 107.89 46.98 Z"
     id="path3360" />
  <path
     fill="#533e2a"
     d=" M 115.73 47.11 C 118.33 46.47 119.63 47.49 119.22 50.19 C 119.13 51.37 119.03 52.56 118.95 53.74 L 118.17 53.88 C 117.56 51.55 116.45 49.40 115.73 47.11 Z"
     id="path3362" />
  <path
     fill="#96664c"
     d=" M 84.15 52.11 C 87.82 51.15 92.57 51.31 94.73 54.97 C 94.83 56.29 94.94 57.62 95.05 58.95 C 95.25 60.98 98.70 59.69 100.21 60.29 C 98.71 60.44 95.72 60.76 94.22 60.92 C 93.65 58.76 93.23 56.57 92.69 54.41 C 89.53 54.38 86.72 52.23 83.50 53.52 C 83.67 53.17 83.99 52.47 84.15 52.11 Z"
     id="path3364" />
  <path
     fill="#79563b"
     d=" M 101.99 51.07 C 106.14 51.00 110.31 50.93 114.47 50.88 C 110.84 51.21 108.29 56.32 104.84 53.23 L 104.13 52.91 C 103.92 54.48 103.50 57.61 103.29 59.18 C 103.18 58.40 102.97 56.85 102.86 56.07 C 102.60 54.40 102.17 52.75 101.99 51.07 Z"
     id="path3366" />
  <path
     fill="#895f3d"
     d=" M 114.47 50.88 C 115.59 51.20 116.07 51.98 115.89 53.23 C 114.62 53.09 113.36 52.98 112.09 52.90 C 113.07 54.09 113.90 55.39 114.48 56.83 C 113.36 58.06 112.18 59.24 110.92 60.32 L 110.10 60.07 C 104.74 58.81 116.01 52.98 105.29 55.77 C 105.18 55.13 104.95 53.87 104.84 53.23 C 108.29 56.32 110.84 51.21 114.47 50.88 Z"
     id="path3368" />
  <path
     fill="#c5906b"
     d=" M 83.50 53.52 C 86.72 52.23 89.53 54.38 92.69 54.41 C 93.23 56.57 93.65 58.76 94.22 60.92 C 95.72 60.76 98.71 60.44 100.21 60.29 C 100.92 60.22 102.35 60.10 103.07 60.03 C 103.49 60.04 104.33 60.05 104.75 60.05 C 104.95 62.58 108.02 61.53 109.25 63.08 C 105.54 63.01 101.83 63.10 98.14 62.62 C 94.93 62.65 92.07 61.16 88.93 60.79 C 90.29 60.07 91.12 58.89 91.18 57.33 C 89.28 57.41 85.58 59.35 85.90 56.03 C 85.75 54.11 82.98 56.03 81.76 55.78 C 82.29 54.98 82.87 54.23 83.50 53.52 Z"
     id="path3370" />
  <path
     fill="#a67550"
     d=" M 104.13 52.91 L 104.84 53.23 C 104.95 53.87 105.18 55.13 105.29 55.77 C 116.01 52.98 104.74 58.81 110.10 60.07 C 108.32 60.01 106.53 60.02 104.75 60.05 C 104.33 60.05 103.49 60.04 103.07 60.03 L 103.29 59.18 C 103.50 57.61 103.92 54.48 104.13 52.91 Z"
     id="path3372" />
  <path
     fill="#9e734f"
     d=" M 112.09 52.90 C 113.36 52.98 114.62 53.09 115.89 53.23 C 116.46 53.39 117.60 53.72 118.17 53.88 L 118.95 53.74 C 120.84 52.82 121.30 53.79 120.97 55.65 C 118.95 56.43 118.23 58.60 117.03 60.22 C 116.13 59.13 115.31 57.97 114.48 56.83 C 113.90 55.39 113.07 54.09 112.09 52.90 Z"
     id="path3374" />
  <path
     fill="#624534"
     d=" M 122.95 57.03 C 121.66 53.72 126.81 51.85 127.82 55.12 C 127.77 59.20 132.93 54.16 133.64 57.50 C 132.03 58.93 130.79 60.72 130.83 62.95 C 126.19 64.44 126.18 59.51 126.67 56.26 C 123.49 51.66 125.42 60.84 124.88 63.14 L 124.08 62.91 C 124.00 60.90 123.98 58.83 122.95 57.03 Z"
     id="path3376" />
  <path
     fill="#4c240e"
     d=" M 94.73 54.97 C 94.95 54.79 95.40 54.44 95.62 54.26 C 96.62 57.20 100.33 55.73 102.86 56.07 C 102.97 56.85 103.18 58.40 103.29 59.18 C 100.54 59.10 97.80 59.02 95.05 58.95 C 94.94 57.62 94.83 56.29 94.73 54.97 Z"
     id="path3378" />
  <path
     fill="#d7a880"
     d=" M 81.76 55.78 C 82.98 56.03 85.75 54.11 85.90 56.03 C 85.58 59.35 89.28 57.41 91.18 57.33 C 91.12 58.89 90.29 60.07 88.93 60.79 C 86.92 61.54 87.29 63.15 88.08 64.73 C 84.81 64.62 81.94 65.39 79.87 67.88 C 79.05 67.86 77.41 67.83 76.59 67.82 C 76.93 63.34 79.35 59.44 81.76 55.78 Z"
     id="path3380" />
  <path
     fill="#442313"
     d=" M 124.88 63.14 C 125.42 60.84 123.49 51.66 126.67 56.26 C 126.18 59.51 126.19 64.44 130.83 62.95 C 131.17 63.17 131.83 63.61 132.16 63.83 C 132.18 64.28 132.21 65.19 132.23 65.65 C 129.93 64.42 129.74 66.12 129.92 68.14 C 129.48 67.82 128.61 67.17 128.18 66.85 C 127.08 65.61 125.96 64.39 124.88 63.14 Z"
     id="path3382" />
  <path
     fill="#dea67e"
     d=" M 117.03 60.22 C 118.23 58.60 118.95 56.43 120.97 55.65 C 121.01 56.96 121.05 58.28 121.11 59.59 C 120.03 60.14 118.98 60.71 117.94 61.32 C 117.71 61.04 117.26 60.49 117.03 60.22 Z"
     id="path3384" />
  <path
     fill="#ae8361"
     d=" M 120.97 55.65 C 121.47 56.00 122.45 56.69 122.95 57.03 C 123.98 58.83 124.00 60.90 124.08 62.91 L 123.18 62.71 C 122.59 61.60 121.87 60.58 121.11 59.59 C 121.05 58.28 121.01 56.96 120.97 55.65 Z"
     id="path3386" />
  <path
     fill="#c68c66"
     d=" M 114.48 56.83 C 115.31 57.97 116.13 59.13 117.03 60.22 C 117.26 60.49 117.71 61.04 117.94 61.32 C 118.40 64.66 115.70 61.26 114.12 61.22 C 113.05 60.94 111.98 60.64 110.92 60.32 C 112.18 59.24 113.36 58.06 114.48 56.83 Z"
     id="path3388" />
  <path
     fill="#763b1f"
     d=" M 95.05 58.95 C 97.80 59.02 100.54 59.10 103.29 59.18 L 103.07 60.03 C 102.35 60.10 100.92 60.22 100.21 60.29 C 98.70 59.69 95.25 60.98 95.05 58.95 Z"
     id="path3390" />
  <path
     fill="#dba57a"
     d=" M 104.75 60.05 C 106.53 60.02 108.32 60.01 110.10 60.07 L 110.92 60.32 C 111.98 60.64 113.05 60.94 114.12 61.22 C 113.01 61.72 111.90 62.19 110.82 62.74 C 112.19 62.87 113.57 63.02 114.94 63.19 C 116.30 66.92 110.40 65.22 109.25 63.08 C 108.02 61.53 104.95 62.58 104.75 60.05 Z"
     id="path3392" />
  <path
     fill="#f0bf96"
     d=" M 117.94 61.32 C 118.98 60.71 120.03 60.14 121.11 59.59 C 121.87 60.58 122.59 61.60 123.18 62.71 C 122.36 64.35 122.86 66.17 122.87 67.92 C 121.91 67.71 120.96 67.49 120.01 67.26 C 120.25 68.24 120.50 69.22 120.76 70.20 C 118.77 70.55 116.18 66.69 115.26 69.51 C 117.16 70.33 117.67 72.81 114.87 72.16 C 111.63 72.08 108.41 71.88 105.18 72.05 C 102.10 71.60 100.40 75.49 96.94 74.02 C 94.46 74.10 92.49 72.22 90.10 71.79 C 90.04 71.39 89.91 70.58 89.84 70.18 C 91.62 69.99 96.09 72.57 94.88 69.14 C 93.67 66.89 90.23 66.24 88.08 64.73 C 87.29 63.15 86.92 61.54 88.93 60.79 C 92.07 61.16 94.93 62.65 98.14 62.62 C 96.88 62.87 96.08 63.60 95.73 64.83 C 95.00 64.94 93.54 65.16 92.81 65.27 C 94.60 66.66 96.81 67.04 99.00 67.25 C 100.61 67.69 102.25 67.94 103.92 67.97 C 103.03 68.82 102.14 69.69 101.76 70.91 C 105.90 71.04 110.03 71.05 114.16 70.92 C 111.51 67.95 107.68 67.82 103.92 67.97 C 105.14 67.20 106.45 66.52 107.44 65.45 C 108.25 64.82 108.85 64.03 109.25 63.08 C 110.40 65.22 116.30 66.92 114.94 63.19 C 113.57 63.02 112.19 62.87 110.82 62.74 C 111.90 62.19 113.01 61.72 114.12 61.22 C 115.70 61.26 118.40 64.66 117.94 61.32 Z"
     id="path3394" />
  <path
     fill="#f4d5a7"
     d=" M 95.73 64.83 C 96.08 63.60 96.88 62.87 98.14 62.62 C 101.83 63.10 105.54 63.01 109.25 63.08 C 108.85 64.03 108.25 64.82 107.44 65.45 C 104.25 65.24 101.07 65.06 97.87 64.95 C 97.34 64.92 96.27 64.86 95.73 64.83 Z"
     id="path3396" />
  <path
     fill="#d1a07a"
     d=" M 123.18 62.71 L 124.08 62.91 L 124.88 63.14 C 125.96 64.39 127.08 65.61 128.18 66.85 C 128.25 67.33 128.39 68.28 128.46 68.75 C 126.53 71.54 126.00 75.11 123.45 77.44 C 121.64 79.00 122.22 81.33 122.66 83.36 C 120.65 82.81 121.17 80.50 120.72 78.93 C 120.20 79.65 119.70 80.38 119.22 81.12 C 119.11 79.77 118.99 78.43 118.87 77.09 C 118.43 74.86 116.44 73.57 114.87 72.16 C 117.67 72.81 117.16 70.33 115.26 69.51 C 116.18 66.69 118.77 70.55 120.76 70.20 C 120.50 69.22 120.25 68.24 120.01 67.26 C 120.96 67.49 121.91 67.71 122.87 67.92 C 122.86 66.17 122.36 64.35 123.18 62.71 Z"
     id="path3398" />
  <path
     fill="#563d30"
     d=" M 132.16 63.83 C 135.33 63.16 138.12 65.24 141.10 65.96 C 141.54 67.10 141.88 68.27 142.19 69.46 C 140.69 71.03 139.95 75.28 143.40 73.80 L 143.04 74.79 C 141.99 75.18 140.95 75.57 139.91 75.97 L 139.05 76.07 C 139.05 75.58 139.03 74.58 139.03 74.08 C 139.65 72.11 140.03 70.02 138.82 68.17 C 135.99 69.11 133.99 67.77 132.23 65.65 C 132.21 65.19 132.18 64.28 132.16 63.83 Z"
     id="path3400" />
  <path
     fill="#f9d4ae"
     d=" M 79.87 67.88 C 81.94 65.39 84.81 64.62 88.08 64.73 C 90.23 66.24 93.67 66.89 94.88 69.14 C 96.09 72.57 91.62 69.99 89.84 70.18 C 89.17 70.09 87.82 69.91 87.15 69.82 C 85.52 67.38 82.47 68.06 79.87 67.88 Z"
     id="path3402" />
  <path
     fill="#e0ac80"
     d=" M 92.81 65.27 C 93.54 65.16 95.00 64.94 95.73 64.83 C 96.27 64.86 97.34 64.92 97.87 64.95 C 98.15 65.52 98.72 66.67 99.00 67.25 C 96.81 67.04 94.60 66.66 92.81 65.27 Z"
     id="path3404" />
  <path
     fill="#ca956b"
     d=" M 97.87 64.95 C 101.07 65.06 104.25 65.24 107.44 65.45 C 106.45 66.52 105.14 67.20 103.92 67.97 C 102.25 67.94 100.61 67.69 99.00 67.25 C 98.72 66.67 98.15 65.52 97.87 64.95 Z"
     id="path3406" />
  <path
     fill="#2b1814"
     d=" M 129.92 68.14 C 129.74 66.12 129.93 64.42 132.23 65.65 C 133.99 67.77 135.99 69.11 138.82 68.17 C 140.03 70.02 139.65 72.11 139.03 74.08 C 137.72 73.45 136.07 70.79 134.75 72.73 C 132.95 75.29 131.20 77.88 129.01 80.14 L 129.00 79.12 C 129.22 75.45 129.81 71.81 129.92 68.14 Z"
     id="path3408" />
  <path
     fill="#684937"
     d=" M 128.18 66.85 C 128.61 67.17 129.48 67.82 129.92 68.14 C 129.81 71.81 129.22 75.45 129.00 79.12 L 128.02 78.90 C 127.94 75.52 128.98 72.12 128.46 68.75 C 128.39 68.28 128.25 67.33 128.18 66.85 Z"
     id="path3410" />
  <path
     fill="#987458"
     d=" M 74.02 77.90 C 75.66 74.73 74.22 70.62 76.59 67.82 C 76.47 70.80 79.37 68.92 81.10 69.03 C 80.09 69.77 78.99 70.49 78.88 71.87 C 80.28 71.95 81.68 72.02 83.09 72.06 C 86.29 76.81 79.18 73.42 77.16 76.21 C 76.94 77.84 76.97 79.49 76.97 81.13 C 76.30 83.39 79.43 83.67 80.30 82.01 C 81.24 81.16 81.79 81.17 81.97 82.04 C 82.05 82.48 82.19 83.34 82.26 83.77 C 84.28 85.18 82.64 86.72 81.67 88.20 C 80.32 87.82 77.35 88.66 78.39 86.33 C 79.05 84.47 76.17 84.79 75.12 83.96 C 74.93 82.55 74.70 81.14 74.38 79.76 C 74.29 79.29 74.11 78.37 74.02 77.90 Z"
     id="path3412" />
  <path
     fill="#ac896c"
     d=" M 76.59 67.82 C 77.41 67.83 79.05 67.86 79.87 67.88 C 82.47 68.06 85.52 67.38 87.15 69.82 C 85.15 69.45 83.15 68.87 81.10 69.03 C 79.37 68.92 76.47 70.80 76.59 67.82 Z"
     id="path3414" />
  <path
     fill="#fae1bc"
     d=" M 103.92 67.97 C 107.68 67.82 111.51 67.95 114.16 70.92 C 110.03 71.05 105.90 71.04 101.76 70.91 C 102.14 69.69 103.03 68.82 103.92 67.97 Z"
     id="path3416" />
  <path
     fill="#3d200e"
     d=" M 81.10 69.03 C 83.15 68.87 85.15 69.45 87.15 69.82 C 87.76 70.57 88.35 71.34 88.91 72.13 C 87.60 71.91 86.28 71.90 84.96 72.10 C 84.49 72.09 83.56 72.07 83.09 72.06 C 81.68 72.02 80.28 71.95 78.88 71.87 C 78.99 70.49 80.09 69.77 81.10 69.03 Z"
     id="path3418" />
  <path
     fill="#b28361"
     d=" M 128.46 68.75 C 128.98 72.12 127.94 75.52 128.02 78.90 L 127.94 79.82 C 124.42 80.98 125.06 84.83 124.11 87.80 L 123.00 87.67 C 122.96 86.22 122.92 84.78 122.66 83.36 C 122.22 81.33 121.64 79.00 123.45 77.44 C 126.00 75.11 126.53 71.54 128.46 68.75 Z"
     id="path3420" />
  <path
     fill="#845c41"
     d=" M 87.15 69.82 C 87.82 69.91 89.17 70.09 89.84 70.18 C 89.91 70.58 90.04 71.39 90.10 71.79 C 89.93 74.40 93.18 74.60 94.63 76.20 C 93.83 77.85 92.85 79.49 93.25 81.42 L 92.42 80.75 C 90.31 75.31 83.98 75.75 79.10 76.01 L 78.90 76.92 C 80.67 76.95 84.21 77.03 85.97 77.06 C 85.38 78.32 84.73 79.55 84.06 80.76 C 83.54 81.08 82.50 81.72 81.97 82.04 C 81.79 81.17 81.24 81.16 80.30 82.01 C 80.47 79.64 78.25 80.35 76.97 81.13 C 76.97 79.49 76.94 77.84 77.16 76.21 C 79.18 73.42 86.29 76.81 83.09 72.06 C 83.56 72.07 84.49 72.09 84.96 72.10 C 85.21 74.53 90.04 75.10 88.91 72.13 C 88.35 71.34 87.76 70.57 87.15 69.82 Z"
     id="path3422" />
  <path
     fill="#87776d"
     d=" M 143.40 73.80 C 139.95 75.28 140.69 71.03 142.19 69.46 C 142.67 70.88 143.05 72.33 143.40 73.80 Z"
     id="path3424" />
  <path
     fill="#654731"
     d=" M 84.96 72.10 C 86.28 71.90 87.60 71.91 88.91 72.13 C 90.04 75.10 85.21 74.53 84.96 72.10 Z"
     id="path3426" />
  <path
     fill="#b1805e"
     d=" M 90.10 71.79 C 92.49 72.22 94.46 74.10 96.94 74.02 C 100.40 75.49 102.10 71.60 105.18 72.05 C 103.94 73.49 102.67 74.91 101.12 76.02 C 98.74 75.66 97.06 77.10 95.76 78.90 C 94.96 79.78 94.14 80.64 93.25 81.42 C 92.85 79.49 93.83 77.85 94.63 76.20 C 93.18 74.60 89.93 74.40 90.10 71.79 Z"
     id="path3428" />
  <path
     fill="#5f3420"
     d=" M 105.18 72.05 C 108.41 71.88 111.63 72.08 114.87 72.16 C 116.44 73.57 118.43 74.86 118.87 77.09 C 114.84 76.65 110.81 75.86 106.75 76.10 C 110.38 80.04 120.13 80.79 119.01 87.88 C 118.21 87.95 116.61 88.07 115.81 88.13 C 115.37 88.12 114.50 88.10 114.07 88.10 C 112.68 88.05 111.29 88.02 109.90 87.98 C 110.74 87.15 111.57 86.30 112.36 85.42 C 116.31 84.22 111.01 80.96 109.01 80.98 C 106.62 80.26 106.16 83.21 106.42 84.94 L 106.51 85.80 C 106.07 86.04 105.19 86.52 104.75 86.75 C 103.08 87.14 103.38 89.06 102.87 90.32 L 102.31 89.79 C 102.59 86.83 100.85 85.31 98.08 84.88 L 97.66 84.20 C 97.27 80.66 97.91 77.59 101.12 76.02 C 102.67 74.91 103.94 73.49 105.18 72.05 Z"
     id="path3430" />
  <path
     fill="#160909"
     d=" M 134.75 72.73 C 136.07 70.79 137.72 73.45 139.03 74.08 C 139.03 74.58 139.05 75.58 139.05 76.07 C 139.02 76.78 138.96 78.20 138.93 78.90 C 135.59 78.21 134.34 79.98 134.64 83.18 C 132.54 82.41 128.94 79.63 131.76 86.87 C 131.75 88.14 130.56 88.93 129.97 89.94 C 127.14 89.08 129.73 82.92 129.01 80.14 C 131.20 77.88 132.95 75.29 134.75 72.73 Z"
     id="path3432" />
  <path
     fill="#2f0e01"
     d=" M 105.96 72.97 C 108.44 74.18 113.92 71.04 115.11 75.00 C 112.34 74.14 106.85 75.81 105.96 72.97 Z"
     id="path3434" />
  <path
     fill="#e0d4cd"
     d=" M 143.40 73.80 C 144.43 77.43 143.74 81.32 143.49 85.00 L 142.94 84.18 L 142.85 83.22 C 142.88 80.41 142.95 77.60 143.04 74.79 L 143.40 73.80 Z"
     id="path3436" />
  <path
     fill="#ad8977"
     d=" M 139.91 75.97 C 140.95 75.57 141.99 75.18 143.04 74.79 C 142.95 77.60 142.88 80.41 142.85 83.22 C 142.57 82.88 141.99 82.21 141.70 81.88 C 139.87 80.41 139.88 78.12 139.91 75.97 Z"
     id="path3438" />
  <path
     fill="#63361f"
     d=" M 79.10 76.01 C 83.98 75.75 90.31 75.31 92.42 80.75 C 90.38 81.00 87.98 80.60 86.58 82.45 C 85.72 81.93 84.91 81.31 84.06 80.76 C 84.73 79.55 85.38 78.32 85.97 77.06 C 84.21 77.03 80.67 76.95 78.90 76.92 L 79.10 76.01 Z"
     id="path3442" />
  <path
     fill="#91694b"
     d=" M 95.76 78.90 C 97.06 77.10 98.74 75.66 101.12 76.02 C 97.91 77.59 97.27 80.66 97.66 84.20 C 96.08 82.87 95.91 80.82 95.76 78.90 Z"
     id="path3444" />
  <path
     fill="#b68865"
     d=" M 106.75 76.10 C 110.81 75.86 114.84 76.65 118.87 77.09 C 118.99 78.43 119.11 79.77 119.22 81.12 C 119.47 83.39 120.08 85.60 120.49 87.85 C 119.47 89.01 118.41 90.16 117.16 91.09 C 116.67 90.12 116.22 89.13 115.81 88.13 C 116.61 88.07 118.21 87.95 119.01 87.88 C 120.13 80.79 110.38 80.04 106.75 76.10 Z"
     id="path3446" />
  <path
     fill="#77594b"
     d=" M 139.05 76.07 L 139.91 75.97 C 139.88 78.12 139.87 80.41 141.70 81.88 C 137.77 83.82 143.48 89.30 139.39 90.81 C 138.67 89.80 137.96 88.78 137.24 87.77 C 137.10 87.15 136.82 85.91 136.68 85.28 C 136.50 82.81 138.30 81.08 138.93 78.90 C 138.96 78.20 139.02 76.78 139.05 76.07 Z"
     id="path3448" />
  <path
     fill="#806153"
     d=" M 70.76 89.72 C 71.04 85.57 72.52 81.73 74.02 77.90 C 74.11 78.37 74.29 79.29 74.38 79.76 C 74.12 83.41 71.45 86.34 71.73 90.10 L 70.76 89.72 Z"
     id="path3450" />
  <path
     fill="#f2d6b0"
     d=" M 93.25 81.42 C 94.14 80.64 94.96 79.78 95.76 78.90 C 95.91 80.82 96.08 82.87 97.66 84.20 L 98.08 84.88 L 98.46 85.73 C 98.24 87.33 97.33 88.13 95.73 88.13 L 94.99 88.26 C 92.23 89.17 93.74 92.83 94.04 94.93 C 93.27 94.99 91.74 95.10 90.98 95.15 C 89.57 95.01 88.16 94.87 86.76 94.72 C 88.16 92.38 89.64 90.03 90.35 87.36 C 90.89 85.87 91.40 84.38 91.99 82.91 C 92.31 82.54 92.94 81.79 93.25 81.42 Z"
     id="path3452" />
  <path
     fill="#f1d6b3"
     d=" M 119.22 81.12 C 119.70 80.38 120.20 79.65 120.72 78.93 C 121.17 80.50 120.65 82.81 122.66 83.36 C 122.92 84.78 122.96 86.22 123.00 87.67 C 121.30 91.32 124.40 96.08 120.72 99.08 C 121.00 96.97 121.03 94.84 120.98 92.72 C 121.00 91.08 120.88 89.44 120.49 87.85 C 120.08 85.60 119.47 83.39 119.22 81.12 Z"
     id="path3454" />
  <path
     fill="#4b2e1d"
     d=" M 128.02 78.90 L 129.00 79.12 L 129.01 80.14 C 129.73 82.92 127.14 89.08 129.97 89.94 C 131.37 90.48 134.96 88.95 134.92 90.85 C 132.42 91.96 129.88 92.75 127.13 92.79 C 127.55 88.48 128.07 84.17 127.94 79.82 L 128.02 78.90 Z"
     id="path3456" />
  <path
     fill="#463127"
     d=" M 134.64 83.18 C 134.34 79.98 135.59 78.21 138.93 78.90 C 138.30 81.08 136.50 82.81 136.68 85.28 C 135.85 84.72 135.17 84.03 134.64 83.18 Z"
     id="path3458" />
  <path
     fill="#d3ac92"
     d=" M 74.38 79.76 C 74.70 81.14 74.93 82.55 75.12 83.96 C 75.00 84.42 74.75 85.32 74.62 85.78 C 73.16 87.02 73.00 88.89 73.03 90.68 C 72.81 91.06 72.37 91.82 72.15 92.20 C 72.04 91.67 71.83 90.63 71.73 90.10 C 71.45 86.34 74.12 83.41 74.38 79.76 Z"
     id="path3460" />
  <path
     fill="#5f351a"
     d=" M 76.97 81.13 C 78.25 80.35 80.47 79.64 80.30 82.01 C 79.43 83.67 76.30 83.39 76.97 81.13 Z"
     id="path3462" />
  <path
     fill="#c39e7f"
     d=" M 124.11 87.80 C 125.06 84.83 124.42 80.98 127.94 79.82 C 128.07 84.17 127.55 88.48 127.13 92.79 C 128.30 95.38 131.91 98.82 128.28 101.08 C 127.09 96.73 127.54 91.03 124.11 87.80 Z"
     id="path3464" />
  <path
     fill="#4b2112"
     d=" M 81.97 82.04 C 82.50 81.72 83.54 81.08 84.06 80.76 C 84.91 81.31 85.72 81.93 86.58 82.45 C 87.98 80.60 90.38 81.00 92.42 80.75 L 93.25 81.42 C 92.94 81.79 92.31 82.54 91.99 82.91 C 90.31 83.23 88.69 84.23 88.80 86.16 C 87.25 84.01 84.68 83.93 82.26 83.77 C 82.19 83.34 82.05 82.48 81.97 82.04 Z"
     id="path3466" />
  <path
     fill="#976f5c"
     d=" M 106.42 84.94 C 106.16 83.21 106.62 80.26 109.01 80.98 C 111.01 80.96 116.31 84.22 112.36 85.42 C 110.39 85.16 108.28 83.55 106.42 84.94 Z"
     id="path3468" />
  <path
     fill="#2c1815"
     d=" M 131.76 86.87 C 128.94 79.63 132.54 82.41 134.64 83.18 C 135.17 84.03 135.85 84.72 136.68 85.28 C 136.82 85.91 137.10 87.15 137.24 87.77 C 136.93 91.23 138.68 96.54 134.01 97.18 C 134.31 95.07 134.81 92.99 134.92 90.85 C 134.96 88.95 131.37 90.48 129.97 89.94 C 130.56 88.93 131.75 88.14 131.76 86.87 Z"
     id="path3470" />
  <path
     fill="#4f362f"
     d=" M 139.39 90.81 C 143.48 89.30 137.77 83.82 141.70 81.88 C 141.99 82.21 142.57 82.88 142.85 83.22 L 142.94 84.18 C 141.25 86.18 141.05 88.46 142.35 91.03 C 141.57 93.99 140.79 96.95 139.81 99.86 C 138.53 99.69 137.25 99.52 135.97 99.48 C 135.25 98.99 134.54 98.49 133.85 97.98 L 134.01 97.18 C 138.68 96.54 136.93 91.23 137.24 87.77 C 137.96 88.78 138.67 89.80 139.39 90.81 Z"
     id="path3472" />
  <path
     fill="#a67352"
     d=" M 88.80 86.16 C 88.69 84.23 90.31 83.23 91.99 82.91 C 91.40 84.38 90.89 85.87 90.35 87.36 L 89.40 87.08 L 88.80 86.16 Z"
     id="path3474" />
  <path
     fill="#c8996e"
     d=" M 75.12 83.96 C 76.17 84.79 79.05 84.47 78.39 86.33 C 77.35 88.66 80.32 87.82 81.67 88.20 C 83.22 89.36 85.07 90.17 86.32 91.69 C 83.17 91.16 80.07 90.40 76.91 89.97 C 75.52 88.97 74.91 87.42 74.62 85.78 C 74.75 85.32 75.00 84.42 75.12 83.96 Z"
     id="path3476" />
  <path
     fill="#6e452a"
     d=" M 82.26 83.77 C 84.68 83.93 87.25 84.01 88.80 86.16 L 89.40 87.08 C 86.84 87.54 84.26 87.91 81.67 88.20 C 82.64 86.72 84.28 85.18 82.26 83.77 Z"
     id="path3478" />
  <path
     fill="#37190d"
     d=" M 106.42 84.94 C 108.28 83.55 110.39 85.16 112.36 85.42 C 111.57 86.30 110.74 87.15 109.90 87.98 C 108.17 88.14 106.53 87.93 106.51 85.80 L 106.42 84.94 Z"
     id="path3480" />
  <path
     fill="#978379"
     d=" M 142.35 91.03 C 141.05 88.46 141.25 86.18 142.94 84.18 L 143.49 85.00 C 143.20 86.51 142.63 89.53 142.35 91.03 Z"
     id="path3482" />
  <path
     fill="#a87051"
     d=" M 98.08 84.88 C 100.85 85.31 102.59 86.83 102.31 89.79 C 100.96 88.49 99.79 87.03 98.46 85.73 L 98.08 84.88 Z"
     id="path3484" />
  <path
     fill="#f0bb94"
     d=" M 73.03 90.68 C 73.00 88.89 73.16 87.02 74.62 85.78 C 74.91 87.42 75.52 88.97 76.91 89.97 C 77.09 93.72 81.52 92.00 83.87 92.03 C 84.03 93.40 84.14 94.77 84.23 96.15 L 84.05 97.10 C 82.57 97.32 79.61 97.77 78.14 98.00 C 77.01 95.13 76.30 91.89 73.03 90.68 Z"
     id="path3486" />
  <path
     fill="#e9af88"
     d=" M 98.46 85.73 C 99.79 87.03 100.96 88.49 102.31 89.79 L 102.87 90.32 C 102.82 90.67 102.73 91.38 102.68 91.73 C 102.33 92.84 102.02 93.97 101.73 95.11 C 100.32 92.29 97.50 90.66 95.73 88.13 C 97.33 88.13 98.24 87.33 98.46 85.73 Z"
     id="path3488" />
  <path
     fill="#a4765a"
     d=" M 104.75 86.75 C 105.19 86.52 106.07 86.04 106.51 85.80 C 106.53 87.93 108.17 88.14 109.90 87.98 C 111.29 88.02 112.68 88.05 114.07 88.10 C 113.78 89.68 114.68 92.32 112.26 92.32 L 112.32 91.35 C 114.99 87.65 107.00 90.64 104.93 89.81 C 104.88 89.04 104.79 87.52 104.75 86.75 Z"
     id="path3490" />
  <path
     fill="#ac7855"
     d=" M 81.67 88.20 C 84.26 87.91 86.84 87.54 89.40 87.08 C 88.38 88.44 88.12 91.54 86.32 91.69 C 85.07 90.17 83.22 89.36 81.67 88.20 Z"
     id="path3492" />
  <path
     fill="#daa87e"
     d=" M 89.40 87.08 L 90.35 87.36 C 89.64 90.03 88.16 92.38 86.76 94.72 L 86.04 95.13 C 85.58 95.38 84.68 95.89 84.23 96.15 C 84.14 94.77 84.03 93.40 83.87 92.03 C 81.52 92.00 77.09 93.72 76.91 89.97 C 80.07 90.40 83.17 91.16 86.32 91.69 C 88.12 91.54 88.38 88.44 89.40 87.08 Z"
     id="path3494" />
  <path
     fill="#945b38"
     d=" M 102.87 90.32 C 103.38 89.06 103.08 87.14 104.75 86.75 C 104.79 87.52 104.88 89.04 104.93 89.81 C 101.18 92.90 110.46 90.41 112.32 91.35 L 112.26 92.32 C 109.82 92.78 107.36 93.08 104.86 93.21 C 104.32 92.84 103.23 92.10 102.68 91.73 C 102.73 91.38 102.82 90.67 102.87 90.32 Z"
     id="path3496" />
  <path
     fill="#e0b98e"
     d=" M 94.04 94.93 C 93.74 92.83 92.23 89.17 94.99 88.26 C 94.98 89.91 94.98 93.19 94.97 94.84 L 94.04 94.93 Z"
     id="path3500" />
  <path
     fill="#ca946e"
     d=" M 94.99 88.26 L 95.73 88.13 C 97.50 90.66 100.32 92.29 101.73 95.11 C 101.85 95.78 102.07 97.13 102.19 97.81 C 102.80 99.31 103.92 100.52 104.81 101.86 C 104.18 102.57 103.57 103.30 102.99 104.05 C 101.45 101.92 99.56 102.37 97.86 104.04 C 99.71 101.26 97.12 99.13 95.76 96.87 C 94.82 95.23 92.55 95.95 91.05 96.10 L 90.98 95.15 C 91.74 95.10 93.27 94.99 94.04 94.93 L 94.97 94.84 C 94.98 93.19 94.98 89.91 94.99 88.26 Z"
     id="path3502" />
  <path
     fill="#d9a37b"
     d=" M 114.07 88.10 C 114.50 88.10 115.37 88.12 115.81 88.13 C 116.22 89.13 116.67 90.12 117.16 91.09 C 118.41 90.16 119.47 89.01 120.49 87.85 C 120.88 89.44 121.00 91.08 120.98 92.72 C 119.43 93.18 119.06 94.76 118.17 95.90 C 115.04 92.39 108.66 96.70 104.86 93.21 C 107.36 93.08 109.82 92.78 112.26 92.32 C 114.68 92.32 113.78 89.68 114.07 88.10 Z"
     id="path3504" />
  <path
     fill="#faeed7"
     d=" M 120.72 99.08 C 124.40 96.08 121.30 91.32 123.00 87.67 L 124.11 87.80 C 127.54 91.03 127.09 96.73 128.28 101.08 C 127.44 101.09 125.75 101.12 124.91 101.13 C 122.78 102.04 121.15 101.51 120.72 99.08 Z"
     id="path3506" />
  <path
     d=" M 68.21 90.95 C 69.06 90.53 69.91 90.12 70.76 89.72 C 70.29 93.08 69.93 96.47 69.98 99.86 C 70.14 103.60 69.28 107.68 71.05 111.17 C 70.87 112.55 70.62 113.91 70.26 115.25 C 69.28 110.63 67.77 105.99 68.22 101.21 C 68.74 98.09 69.59 94.78 68.28 91.75 L 68.21 90.95 Z"
     id="path3508"
     fill="#4a382e" />
  <path
     fill="#ac805e"
     d=" M 70.76 89.72 L 71.73 90.10 C 71.83 90.63 72.04 91.67 72.15 92.20 C 73.08 95.17 73.42 99.47 77.31 99.69 C 79.52 100.08 83.92 99.96 84.05 97.10 L 84.23 96.15 C 84.68 95.89 85.58 95.38 86.04 95.13 C 84.93 97.41 85.04 99.87 86.24 102.09 C 82.71 99.07 81.03 103.66 79.45 106.15 C 80.26 108.41 82.59 110.37 85.14 109.16 C 84.81 109.61 84.15 110.51 83.81 110.96 L 82.92 110.99 C 82.48 110.89 81.62 110.71 81.18 110.61 C 80.13 109.90 78.86 107.99 77.73 109.71 C 74.45 111.73 77.27 119.81 72.10 117.00 C 72.04 114.99 71.99 112.98 71.95 110.97 C 70.27 107.63 75.14 101.13 69.98 99.86 C 69.93 96.47 70.29 93.08 70.76 89.72 Z"
     id="path3510" />
  <path
     fill="#5d2606"
     d=" M 112.32 91.35 C 110.46 90.41 101.18 92.90 104.93 89.81 C 107.00 90.64 114.99 87.65 112.32 91.35 Z"
     id="path3512" />
  <path
     fill="#cd9a73"
     d=" M 73.03 90.68 C 76.30 91.89 77.01 95.13 78.14 98.00 C 79.61 97.77 82.57 97.32 84.05 97.10 C 83.92 99.96 79.52 100.08 77.31 99.69 C 73.42 99.47 73.08 95.17 72.15 92.20 C 72.37 91.82 72.81 91.06 73.03 90.68 Z"
     id="path3514" />
  <path
     fill="#7c5b43"
     d=" M 127.13 92.79 C 129.88 92.75 132.42 91.96 134.92 90.85 C 134.81 92.99 134.31 95.07 134.01 97.18 L 133.85 97.98 C 133.00 100.30 133.90 102.69 134.07 105.05 L 133.25 104.93 C 133.18 104.44 133.03 103.45 132.95 102.96 C 132.61 101.02 129.33 102.34 127.81 101.78 L 128.28 101.08 C 131.91 98.82 128.30 95.38 127.13 92.79 Z"
     id="path3516" />
  <path
     fill="#26170e"
     d=" M 68.28 91.75 C 69.59 94.78 68.74 98.09 68.22 101.21 C 68.08 100.48 67.81 99.00 67.68 98.27 C 67.88 96.09 68.09 93.92 68.28 91.75 Z"
     id="path3518" />
  <path
     fill="#f6c399"
     d=" M 101.73 95.11 C 102.02 93.97 102.33 92.84 102.68 91.73 C 103.23 92.10 104.32 92.84 104.86 93.21 C 108.66 96.70 115.04 92.39 118.17 95.90 C 116.06 96.54 114.00 97.24 111.97 97.98 C 109.28 100.73 105.05 99.88 102.19 97.81 C 102.07 97.13 101.85 95.78 101.73 95.11 Z"
     id="path3520" />
  <path
     fill="#ca946c"
     d=" M 118.17 95.90 C 119.06 94.76 119.43 93.18 120.98 92.72 C 121.03 94.84 121.00 96.97 120.72 99.08 C 120.04 100.74 120.55 102.52 120.65 104.23 C 119.22 102.39 118.56 100.24 118.67 97.79 C 117.10 98.72 117.28 100.32 117.54 101.87 C 115.59 103.05 113.55 104.09 111.74 105.49 C 109.36 103.35 105.01 106.18 104.81 101.86 C 108.05 103.49 113.52 102.71 111.97 97.98 C 114.00 97.24 116.06 96.54 118.17 95.90 Z"
     id="path3522" />
  <path
     fill="#58301f"
     d=" M 86.04 95.13 L 86.76 94.72 C 88.16 94.87 89.57 95.01 90.98 95.15 L 91.05 96.10 C 90.96 97.16 91.45 97.82 92.50 98.08 C 91.69 100.67 95.96 101.08 94.07 103.92 C 91.48 103.43 90.50 104.68 91.00 107.19 C 87.18 107.30 89.48 102.47 88.88 99.94 C 87.97 100.62 87.10 101.35 86.24 102.09 C 85.04 99.87 84.93 97.41 86.04 95.13 Z"
     id="path3524" />
  <path
     fill="#8b6047"
     d=" M 91.05 96.10 C 92.55 95.95 94.82 95.23 95.76 96.87 C 94.64 97.18 93.55 97.58 92.50 98.08 C 91.45 97.82 90.96 97.16 91.05 96.10 Z"
     id="path3526" />
  <path
     fill="#411b0f"
     d=" M 92.50 98.08 C 93.55 97.58 94.64 97.18 95.76 96.87 C 97.12 99.13 99.71 101.26 97.86 104.04 C 97.43 104.04 96.56 104.04 96.12 104.04 C 95.61 104.01 94.58 103.95 94.07 103.92 C 95.96 101.08 91.69 100.67 92.50 98.08 Z"
     id="path3528" />
  <path
     fill="#e3ab83"
     d=" M 102.19 97.81 C 105.05 99.88 109.28 100.73 111.97 97.98 C 113.52 102.71 108.05 103.49 104.81 101.86 C 103.92 100.52 102.80 99.31 102.19 97.81 Z"
     id="path3530" />
  <path
     fill="#ac7b59"
     d=" M 117.54 101.87 C 117.28 100.32 117.10 98.72 118.67 97.79 C 118.56 100.24 119.22 102.39 120.65 104.23 C 120.68 104.61 120.75 105.38 120.78 105.76 C 119.19 109.66 119.16 113.89 118.93 118.04 C 117.49 119.07 116.10 120.27 115.57 122.03 C 113.72 120.40 114.80 118.58 115.85 116.87 C 116.04 113.26 113.43 109.80 114.92 106.19 C 112.06 107.41 109.00 108.02 106.02 108.85 C 103.11 109.39 101.89 112.57 99.80 114.38 C 97.95 113.65 96.28 112.54 94.76 111.27 C 96.39 111.40 98.00 111.91 99.65 111.75 C 100.85 109.91 102.13 108.09 102.85 106.00 C 102.88 105.51 102.95 104.53 102.99 104.05 C 103.57 103.30 104.18 102.57 104.81 101.86 C 105.01 106.18 109.36 103.35 111.74 105.49 C 113.55 104.09 115.59 103.05 117.54 101.87 Z"
     id="path3532" />
  <path
     fill="#451d0f"
     d=" M 133.85 97.98 C 134.54 98.49 135.25 98.99 135.97 99.48 C 138.13 101.57 136.51 104.25 134.98 106.10 C 134.75 105.84 134.30 105.31 134.07 105.05 C 133.90 102.69 133.00 100.30 133.85 97.98 Z"
     id="path3534" />
  <path
     fill="#eac5a2"
     d=" M 120.65 104.23 C 120.55 102.52 120.04 100.74 120.72 99.08 C 121.15 101.51 122.78 102.04 124.91 101.13 C 123.61 104.27 124.03 109.30 128.01 110.06 C 129.28 107.61 126.34 104.20 127.81 101.78 C 129.33 102.34 132.61 101.02 132.95 102.96 C 128.84 101.29 129.19 107.62 132.81 106.98 C 132.92 106.46 133.14 105.44 133.25 104.93 L 134.07 105.05 C 134.30 105.31 134.75 105.84 134.98 106.10 C 137.36 109.05 134.08 109.23 131.67 109.77 C 130.36 108.95 129.70 109.24 130.01 110.93 L 129.06 110.98 C 127.70 110.98 126.35 111.02 125.00 111.10 C 124.99 112.67 125.15 114.23 125.36 115.79 C 123.56 118.71 122.71 122.07 121.08 125.08 L 120.62 126.02 C 120.75 123.18 118.97 120.84 118.93 118.04 C 121.66 114.56 121.02 109.91 120.78 105.76 C 120.75 105.38 120.68 104.61 120.65 104.23 Z"
     id="path3536" />
  <path
     fill="#a77f6f"
     d=" M 135.97 99.48 C 137.25 99.52 138.53 99.69 139.81 99.86 C 139.19 101.84 139.07 103.92 138.94 105.99 C 137.62 106.02 136.29 106.05 134.98 106.10 C 136.51 104.25 138.13 101.57 135.97 99.48 Z"
     id="path3538" />
  <path
     fill="#98775e"
     d=" M 69.98 99.86 C 75.14 101.13 70.27 107.63 71.95 110.97 L 71.05 111.17 C 69.28 107.68 70.14 103.60 69.98 99.86 Z"
     id="path3540" />
  <path
     fill="#a27455"
     d=" M 86.24 102.09 C 87.10 101.35 87.97 100.62 88.88 99.94 C 89.48 102.47 87.18 107.30 91.00 107.19 C 88.76 107.79 85.60 109.09 84.12 106.77 C 83.49 104.83 85.42 103.59 86.24 102.09 Z"
     id="path3542" />
  <path
     fill="#c99976"
     d=" M 79.45 106.15 C 81.03 103.66 82.71 99.07 86.24 102.09 C 85.42 103.59 83.49 104.83 84.12 106.77 C 85.60 109.09 88.76 107.79 91.00 107.19 L 91.81 106.92 C 93.75 108.24 95.86 109.27 98.11 109.95 C 98.58 107.44 96.56 106.65 94.60 105.91 C 94.98 105.44 95.74 104.51 96.12 104.04 C 96.56 104.04 97.43 104.04 97.86 104.04 C 97.55 107.03 101.02 105.68 102.85 106.00 C 102.13 108.09 100.85 109.91 99.65 111.75 C 98.00 111.91 96.39 111.40 94.76 111.27 C 92.91 111.00 91.05 110.97 89.19 110.91 C 89.47 108.29 86.82 109.03 85.14 109.16 C 82.59 110.37 80.26 108.41 79.45 106.15 Z"
     id="path3544" />
  <path
     fill="#d3a67c"
     d=" M 124.91 101.13 C 125.75 101.12 127.44 101.09 128.28 101.08 L 127.81 101.78 C 126.34 104.20 129.28 107.61 128.01 110.06 C 124.03 109.30 123.61 104.27 124.91 101.13 Z"
     id="path3546" />
  <path
     fill="#e9b58e"
     d=" M 97.86 104.04 C 99.56 102.37 101.45 101.92 102.99 104.05 C 102.95 104.53 102.88 105.51 102.85 106.00 C 101.02 105.68 97.55 107.03 97.86 104.04 Z"
     id="path3548" />
  <path
     fill="#f8e9ca"
     d=" M 132.81 106.98 C 129.19 107.62 128.84 101.29 132.95 102.96 C 133.03 103.45 133.18 104.44 133.25 104.93 C 133.14 105.44 132.92 106.46 132.81 106.98 Z"
     id="path3550" />
  <path
     fill="#916749"
     d=" M 91.00 107.19 C 90.50 104.68 91.48 103.43 94.07 103.92 C 94.58 103.95 95.61 104.01 96.12 104.04 C 95.74 104.51 94.98 105.44 94.60 105.91 C 93.66 106.21 92.73 106.55 91.81 106.92 L 91.00 107.19 Z"
     id="path3552" />
  <path
     fill="#b6875e"
     d=" M 91.81 106.92 C 92.73 106.55 93.66 106.21 94.60 105.91 C 96.56 106.65 98.58 107.44 98.11 109.95 C 95.86 109.27 93.75 108.24 91.81 106.92 Z"
     id="path3554" />
  <path
     fill="#a0744f"
     d=" M 106.02 108.85 C 109.00 108.02 112.06 107.41 114.92 106.19 C 113.43 109.80 116.04 113.26 115.85 116.87 C 114.80 118.58 113.72 120.40 115.57 122.03 C 116.58 122.72 117.72 123.17 118.99 123.38 C 118.69 124.79 117.72 125.90 116.98 127.09 C 116.07 127.25 115.15 127.37 114.25 127.52 C 113.69 128.39 114.70 131.57 113.11 130.75 C 112.72 126.21 111.90 120.95 107.52 118.53 C 107.77 115.22 106.97 112.00 106.02 108.85 Z"
     id="path3556" />
  <path
     fill="#cc9e7c"
     d=" M 118.93 118.04 C 119.16 113.89 119.19 109.66 120.78 105.76 C 121.02 109.91 121.66 114.56 118.93 118.04 Z"
     id="path3558" />
  <path
     fill="#d8cac0"
     d=" M 134.98 106.10 C 136.29 106.05 137.62 106.02 138.94 105.99 C 138.58 109.92 137.23 113.81 135.22 117.20 C 134.10 114.69 132.85 112.25 131.67 109.77 C 134.08 109.23 137.36 109.05 134.98 106.10 Z"
     id="path3560" />
  <path
     fill="#977252"
     d=" M 77.73 109.71 C 78.86 107.99 80.13 109.90 81.18 110.61 C 78.56 111.06 77.07 112.92 78.77 115.32 C 79.26 119.13 76.10 121.61 75.66 125.17 C 74.50 123.55 74.08 117.63 71.60 120.05 C 71.44 119.59 71.12 118.67 70.96 118.21 C 71.24 117.91 71.82 117.30 72.10 117.00 C 77.27 119.81 74.45 111.73 77.73 109.71 Z"
     id="path3562" />
  <path
     fill="#8a5e42"
     d=" M 85.14 109.16 C 86.82 109.03 89.47 108.29 89.19 110.91 C 87.40 110.94 85.61 110.95 83.81 110.96 C 84.15 110.51 84.81 109.61 85.14 109.16 Z"
     id="path3564" />
  <path
     fill="#866142"
     d=" M 99.80 114.38 C 101.89 112.57 103.11 109.39 106.02 108.85 C 106.97 112.00 107.77 115.22 107.52 118.53 C 111.90 120.95 112.72 126.21 113.11 130.75 C 114.70 131.57 113.69 128.39 114.25 127.52 C 115.15 127.37 116.07 127.25 116.98 127.09 C 116.61 128.64 116.28 130.21 116.18 131.81 C 115.41 132.52 114.63 133.22 113.83 133.91 C 111.43 133.66 111.63 136.47 111.99 138.05 C 111.31 141.08 114.16 139.65 115.55 138.68 C 116.09 137.14 116.51 135.56 117.22 134.09 C 118.42 132.17 119.48 130.16 120.21 128.01 C 124.80 126.82 122.75 132.27 123.10 135.24 C 122.19 134.91 121.28 134.62 120.35 134.36 C 118.97 138.03 116.15 140.73 113.95 143.87 C 115.57 144.89 117.35 145.63 119.15 146.29 C 119.06 146.71 118.87 147.55 118.77 147.97 C 116.80 147.67 114.81 147.19 112.82 147.67 C 112.07 146.95 111.37 146.18 110.91 145.25 C 111.67 144.26 112.40 143.23 113.01 142.14 C 111.42 141.23 109.74 140.53 108.07 139.81 C 106.04 139.08 103.64 138.80 103.13 136.32 C 105.57 135.35 108.01 134.37 110.52 133.60 C 110.62 132.23 111.00 130.96 111.82 129.86 C 110.94 126.88 108.39 124.83 106.13 122.88 C 106.41 124.55 106.90 126.19 106.99 127.89 C 105.54 129.81 103.94 131.65 102.01 133.10 C 102.65 131.19 103.74 129.50 104.56 127.68 C 104.66 125.25 104.26 122.83 104.18 120.40 C 105.14 118.75 106.19 117.03 106.08 115.03 C 104.77 115.06 103.47 115.15 102.17 115.29 C 101.58 115.06 100.39 114.60 99.80 114.38 Z"
     id="path3566" />
  <path
     fill="#332b28"
     d=" M 130.01 110.93 C 129.70 109.24 130.36 108.95 131.67 109.77 C 132.85 112.25 134.10 114.69 135.22 117.20 C 133.02 120.25 129.50 122.26 128.79 126.26 C 128.37 123.24 127.97 120.23 127.98 117.19 C 130.53 116.05 129.93 113.20 130.01 110.93 Z"
     id="path3568" />
  <path
     fill="#6f5a4a"
     d=" M 71.05 111.17 L 71.95 110.97 C 71.99 112.98 72.04 114.99 72.10 117.00 C 71.82 117.30 71.24 117.91 70.96 118.21 C 70.67 117.24 70.44 116.25 70.26 115.25 C 70.62 113.91 70.87 112.55 71.05 111.17 Z"
     id="path3570" />
  <path
     fill="#653d28"
     d=" M 78.77 115.32 C 77.07 112.92 78.56 111.06 81.18 110.61 C 81.62 110.71 82.48 110.89 82.92 110.99 C 82.59 111.96 82.28 112.94 82.01 113.94 L 81.73 114.86 C 80.99 114.98 79.51 115.21 78.77 115.32 Z"
     id="path3572" />
  <path
     fill="#240f09"
     d=" M 82.92 110.99 L 83.81 110.96 C 85.61 110.95 87.40 110.94 89.19 110.91 C 91.05 110.97 92.91 111.00 94.76 111.27 C 96.28 112.54 97.95 113.65 99.80 114.38 C 100.39 114.60 101.58 115.06 102.17 115.29 C 100.43 116.42 98.48 117.18 96.37 116.89 C 94.67 116.07 92.78 115.96 90.94 115.91 C 91.67 114.93 92.40 113.95 93.06 112.92 C 89.31 113.38 85.91 115.12 82.01 113.94 C 82.28 112.94 82.59 111.96 82.92 110.99 Z"
     id="path3574" />
  <path
     fill="#daad93"
     d=" M 125.00 111.10 C 126.35 111.02 127.70 110.98 129.06 110.98 C 128.66 112.26 128.23 113.54 127.88 114.85 C 127.39 116.97 126.84 119.08 126.25 121.18 C 126.07 119.36 125.82 117.55 125.36 115.79 C 125.15 114.23 124.99 112.67 125.00 111.10 Z"
     id="path3576" />
  <path
     fill="#997567"
     d=" M 129.06 110.98 L 130.01 110.93 C 129.93 113.20 130.53 116.05 127.98 117.19 C 127.96 116.60 127.91 115.43 127.88 114.85 C 128.23 113.54 128.66 112.26 129.06 110.98 Z"
     id="path3578" />
  <path
     fill="#442516"
     d=" M 82.01 113.94 C 85.91 115.12 89.31 113.38 93.06 112.92 C 92.40 113.95 91.67 114.93 90.94 115.91 C 90.19 115.93 88.71 115.96 87.97 115.98 C 85.92 115.47 83.84 115.07 81.73 114.86 L 82.01 113.94 Z"
     id="path3580" />
  <path
     fill="#aa7d5b"
     d=" M 78.77 115.32 C 79.51 115.21 80.99 114.98 81.73 114.86 C 82.68 116.48 83.98 118.00 84.04 119.98 C 83.18 123.70 87.51 123.81 89.88 125.15 C 92.14 125.94 94.44 126.19 96.79 125.90 C 98.65 124.55 97.78 122.00 98.05 120.05 C 99.96 120.68 103.15 123.97 103.51 119.86 L 104.18 120.40 C 104.26 122.83 104.66 125.25 104.56 127.68 C 103.74 129.50 102.65 131.19 102.01 133.10 C 99.87 132.62 97.35 133.06 95.76 131.24 C 97.80 130.85 100.43 131.61 101.92 129.80 C 102.49 128.11 100.85 126.76 99.25 127.08 C 95.76 126.95 92.29 127.01 88.80 127.08 C 85.69 125.17 82.39 123.22 78.49 124.04 C 78.30 125.41 78.07 126.76 77.83 128.12 C 76.87 127.32 75.97 126.42 75.66 125.17 C 76.10 121.61 79.26 119.13 78.77 115.32 Z"
     id="path3582" />
  <path
     fill="#91684b"
     d=" M 81.73 114.86 C 83.84 115.07 85.92 115.47 87.97 115.98 L 88.00 116.95 C 87.24 116.99 85.73 117.06 84.97 117.09 C 85.62 118.08 86.35 119.01 87.06 119.95 C 86.31 119.96 84.80 119.98 84.04 119.98 C 83.98 118.00 82.68 116.48 81.73 114.86 Z"
     id="path3584" />
  <path
     fill="#5d3520"
     d=" M 102.17 115.29 C 103.47 115.15 104.77 115.06 106.08 115.03 C 106.19 117.03 105.14 118.75 104.18 120.40 L 103.51 119.86 C 101.66 117.54 98.63 118.00 95.93 117.82 L 96.37 116.89 C 98.48 117.18 100.43 116.42 102.17 115.29 Z"
     id="path3586" />
  <path
     fill="#f4ecda"
     d=" M 126.25 121.18 C 126.84 119.08 127.39 116.97 127.88 114.85 C 127.91 115.43 127.96 116.60 127.98 117.19 C 127.97 120.23 128.37 123.24 128.79 126.26 C 128.96 128.28 127.61 130.95 130.09 131.95 C 128.74 131.95 127.40 132.00 126.05 132.10 C 126.05 133.84 126.04 137.33 126.03 139.07 L 124.98 139.04 C 125.18 133.11 124.35 126.92 126.25 121.18 Z"
     id="path3588" />
  <path
     fill="#633e2b"
     d=" M 87.97 115.98 C 88.71 115.96 90.19 115.93 90.94 115.91 C 92.78 115.96 94.67 116.07 96.37 116.89 C 93.58 116.92 90.79 116.94 88.00 116.95 L 87.97 115.98 Z"
     id="path3590" />
  <path
     fill="#c9a284"
     d=" M 125.36 115.79 C 125.82 117.55 126.07 119.36 126.25 121.18 C 124.35 126.92 125.18 133.11 124.98 139.04 L 124.96 140.05 L 124.15 140.14 C 123.71 138.53 123.27 136.91 123.10 135.24 C 122.94 132.49 126.50 125.07 121.08 125.08 C 122.71 122.07 123.56 118.71 125.36 115.79 Z"
     id="path3592" />
  <path
     fill="#a4785d"
     d=" M 84.97 117.09 C 85.73 117.06 87.24 116.99 88.00 116.95 C 90.79 116.94 93.58 116.92 96.37 116.89 L 95.93 117.82 C 93.35 118.24 88.85 116.40 88.82 119.96 C 88.38 119.96 87.50 119.96 87.06 119.95 C 86.35 119.01 85.62 118.08 84.97 117.09 Z"
     id="path3594" />
  <path
     fill="#bd8d70"
     d=" M 88.82 119.96 C 88.85 116.40 93.35 118.24 95.93 117.82 C 98.63 118.00 101.66 117.54 103.51 119.86 C 103.15 123.97 99.96 120.68 98.05 120.05 C 97.25 120.04 95.63 120.03 94.82 120.03 C 92.82 120.00 90.82 119.99 88.82 119.96 Z"
     id="path3596" />
  <path
     fill="#bf9576"
     d=" M 115.57 122.03 C 116.10 120.27 117.49 119.07 118.93 118.04 C 118.97 120.84 120.75 123.18 120.62 126.02 C 120.52 126.52 120.31 127.51 120.21 128.01 C 119.48 130.16 118.42 132.17 117.22 134.09 C 116.96 133.52 116.44 132.38 116.18 131.81 C 116.28 130.21 116.61 128.64 116.98 127.09 C 117.72 125.90 118.69 124.79 118.99 123.38 C 117.72 123.17 116.58 122.72 115.57 122.03 Z"
     id="path3598" />
  <path
     fill="#74624c"
     d=" M 71.60 120.05 C 74.08 117.63 74.50 123.55 75.66 125.17 C 75.97 126.42 76.87 127.32 77.83 128.12 C 78.11 128.37 78.66 128.86 78.93 129.11 C 78.93 129.82 78.94 131.25 78.94 131.96 C 78.93 132.48 78.91 133.53 78.90 134.05 C 78.41 133.83 77.44 133.38 76.95 133.15 L 76.17 132.79 C 76.44 128.05 73.34 124.21 71.60 120.05 Z"
     id="path3600" />
  <path
     fill="#572b15"
     d=" M 84.04 119.98 C 84.80 119.98 86.31 119.96 87.06 119.95 C 87.50 119.96 88.38 119.96 88.82 119.96 C 90.82 119.99 92.82 120.00 94.82 120.03 C 95.89 121.49 97.28 123.09 95.80 124.83 C 94.32 124.91 91.36 125.07 89.88 125.15 C 87.51 123.81 83.18 123.70 84.04 119.98 Z"
     id="path3602" />
  <path
     fill="#8b5939"
     d=" M 94.82 120.03 C 95.63 120.03 97.25 120.04 98.05 120.05 C 97.78 122.00 98.65 124.55 96.79 125.90 C 94.44 126.19 92.14 125.94 89.88 125.15 C 91.36 125.07 94.32 124.91 95.80 124.83 C 97.28 123.09 95.89 121.49 94.82 120.03 Z"
     id="path3604" />
  <path
     fill="#6e4b35"
     d=" M 106.13 122.88 C 108.39 124.83 110.94 126.88 111.82 129.86 C 111.00 130.96 110.62 132.23 110.52 133.60 C 108.01 134.37 105.57 135.35 103.13 136.32 C 103.64 138.80 106.04 139.08 108.07 139.81 C 106.70 140.08 105.35 140.44 104.03 140.88 C 102.28 137.74 98.97 135.96 96.07 134.02 C 97.56 133.79 100.53 133.33 102.01 133.10 C 103.94 131.65 105.54 129.81 106.99 127.89 C 106.90 126.19 106.41 124.55 106.13 122.88 Z"
     id="path3606" />
  <path
     fill="#ce9d78"
     d=" M 78.49 124.04 C 82.39 123.22 85.69 125.17 88.80 127.08 C 89.42 131.64 94.44 129.99 97.83 129.91 C 98.37 129.00 98.84 128.05 99.25 127.08 C 100.85 126.76 102.49 128.11 101.92 129.80 C 100.43 131.61 97.80 130.85 95.76 131.24 C 94.44 131.18 93.13 131.14 91.82 131.10 C 91.17 131.00 89.87 130.81 89.22 130.71 C 85.86 129.75 82.45 128.82 78.93 129.11 C 78.66 128.86 78.11 128.37 77.83 128.12 C 78.07 126.76 78.30 125.41 78.49 124.04 Z"
     id="path3608" />
  <path
     fill="#aa7f5f"
     d=" M 121.08 125.08 C 126.50 125.07 122.94 132.49 123.10 135.24 C 122.75 132.27 124.80 126.82 120.21 128.01 C 120.31 127.51 120.52 126.52 120.62 126.02 L 121.08 125.08 Z"
     id="path3610" />
  <path
     fill="#eec098"
     d=" M 88.80 127.08 C 92.29 127.01 95.76 126.95 99.25 127.08 C 98.84 128.05 98.37 129.00 97.83 129.91 C 94.44 129.99 89.42 131.64 88.80 127.08 Z"
     id="path3612" />
  <path
     fill="#a67d60"
     d=" M 78.93 129.11 C 82.45 128.82 85.86 129.75 89.22 130.71 C 85.78 130.93 82.14 130.43 78.94 131.96 C 78.94 131.25 78.93 129.82 78.93 129.11 Z"
     id="path3614" />
  <path
     fill="#724e35"
     d=" M 78.94 131.96 C 82.14 130.43 85.78 130.93 89.22 130.71 C 89.87 130.81 91.17 131.00 91.82 131.10 C 93.41 131.81 95.02 132.56 96.07 134.02 C 91.38 133.56 86.32 131.39 81.80 133.62 C 80.59 133.93 79.87 134.71 79.62 135.96 C 79.44 135.48 79.08 134.53 78.90 134.05 C 78.91 133.53 78.93 132.48 78.94 131.96 Z"
     id="path3616" />
  <path
     fill="#936a49"
     d=" M 91.82 131.10 C 93.13 131.14 94.44 131.18 95.76 131.24 C 97.35 133.06 99.87 132.62 102.01 133.10 C 100.53 133.33 97.56 133.79 96.07 134.02 C 95.02 132.56 93.41 131.81 91.82 131.10 Z"
     id="path3618" />
  <path
     fill="#b59db1"
     d=" M 133.74 131.69 C 136.39 130.79 139.20 131.08 141.98 131.05 L 141.66 132.12 C 139.01 131.95 136.38 131.80 133.74 131.69 Z"
     id="path3620" />
  <path
     fill="#685968"
     d=" M 141.98 131.05 C 148.08 130.81 154.22 131.05 160.24 132.15 C 154.53 133.22 148.71 133.05 142.94 133.06 C 142.62 132.83 141.98 132.36 141.66 132.12 L 141.98 131.05 Z"
     id="path3622" />
  <path
     fill="#502f25"
     d=" M 81.80 133.62 C 86.32 131.39 91.38 133.56 96.07 134.02 C 98.97 135.96 102.28 137.74 104.03 140.88 C 104.54 144.62 104.41 148.56 105.89 152.09 C 107.03 154.81 110.11 159.75 106.02 161.14 C 103.03 157.96 99.21 156.22 95.05 155.07 C 93.27 152.76 92.82 149.86 91.94 147.15 C 92.33 147.10 93.12 147.00 93.51 146.95 C 96.77 152.90 104.75 144.88 100.98 141.06 C 98.50 138.83 96.41 135.59 92.69 135.53 C 88.98 135.50 85.48 134.04 81.80 133.62 Z"
     id="path3624" />
  <path
     fill="#d9b995"
     d=" M 116.18 131.81 C 116.44 132.38 116.96 133.52 117.22 134.09 C 116.51 135.56 116.09 137.14 115.55 138.68 C 114.16 139.65 111.31 141.08 111.99 138.05 C 113.88 137.59 114.52 135.62 113.83 133.91 C 114.63 133.22 115.41 132.52 116.18 131.81 Z"
     id="path3626" />
  <path
     fill="#988078"
     d=" M 126.05 132.10 C 127.40 132.00 128.74 131.95 130.09 131.95 L 130.00 132.90 C 125.57 131.89 127.73 136.20 127.64 138.82 C 127.25 139.15 126.47 139.80 126.07 140.13 L 126.03 139.07 C 126.04 137.33 126.05 133.84 126.05 132.10 Z"
     id="path3628" />
  <path
     fill="#a46ba0"
     d=" M 130.09 131.95 C 131.31 131.89 132.52 131.80 133.74 131.69 C 136.38 131.80 139.01 131.95 141.66 132.12 C 141.98 132.36 142.62 132.83 142.94 133.06 C 145.68 132.88 147.41 133.80 148.12 135.82 C 146.15 136.41 144.10 138.93 142.25 136.82 C 138.00 133.54 143.74 144.84 139.24 144.22 L 139.13 143.12 C 139.07 141.34 138.97 137.80 138.92 136.03 C 137.62 136.16 136.36 136.43 135.07 136.59 C 132.73 135.68 129.24 131.13 131.95 139.97 C 131.47 139.73 130.50 139.24 130.02 139.00 C 130.00 136.96 129.99 134.93 130.00 132.90 L 130.09 131.95 Z"
     id="path3630" />
  <path
     fill="#bb8ab7"
     d=" M 160.24 132.15 C 163.49 132.38 166.63 133.28 169.81 133.94 C 170.15 138.21 176.35 134.37 178.32 137.68 C 171.78 137.38 164.71 139.49 158.48 136.81 C 156.57 139.34 149.65 130.62 151.78 136.03 C 150.55 136.00 149.33 135.93 148.12 135.82 C 147.41 133.80 145.68 132.88 142.94 133.06 C 148.71 133.05 154.53 133.22 160.24 132.15 Z"
     id="path3632" />
  <path
     fill="#563e37"
     d=" M 76.17 132.79 L 76.95 133.15 C 77.01 137.85 76.99 142.57 77.10 147.27 C 77.08 147.92 77.04 149.21 77.02 149.86 C 76.98 150.43 76.91 151.59 76.88 152.16 C 75.78 151.56 74.86 150.72 73.95 149.88 C 77.07 144.72 75.85 138.51 76.17 132.79 Z"
     id="path3634" />
  <path
     fill="#9a785d"
     d=" M 76.95 133.15 C 77.44 133.38 78.41 133.83 78.90 134.05 C 79.08 134.53 79.44 135.48 79.62 135.96 L 79.94 136.82 C 80.43 140.62 81.74 145.52 77.10 147.27 C 76.99 142.57 77.01 137.85 76.95 133.15 Z"
     id="path3636" />
  <path
     fill="#4b1b33"
     d=" M 127.64 138.82 C 127.73 136.20 125.57 131.89 130.00 132.90 C 129.99 134.93 130.00 136.96 130.02 139.00 C 129.90 141.68 130.26 144.51 128.88 146.92 C 128.48 147.83 128.11 148.75 127.77 149.68 C 125.24 150.47 125.90 153.72 125.24 155.79 C 123.94 157.03 122.78 158.59 120.95 159.05 L 120.90 157.93 C 122.58 154.67 124.48 151.54 126.02 148.22 C 127.25 145.26 128.28 142.03 127.64 138.82 Z"
     id="path3638" />
  <path
     fill="#2e1815"
     d=" M 79.62 135.96 C 79.87 134.71 80.59 133.93 81.80 133.62 C 85.48 134.04 88.98 135.50 92.69 135.53 C 96.41 135.59 98.50 138.83 100.98 141.06 C 100.24 142.63 99.51 144.21 98.68 145.75 C 96.80 145.68 94.77 145.10 93.51 146.95 C 93.12 147.00 92.33 147.10 91.94 147.15 C 91.66 146.70 91.11 145.80 90.84 145.34 C 93.03 145.53 93.25 143.88 92.96 142.14 C 90.41 140.89 87.59 140.28 85.10 138.86 C 83.83 136.91 82.07 135.58 79.62 135.96 Z"
     id="path3640" />
  <path
     fill="#ae9270"
     d=" M 111.99 138.05 C 111.63 136.47 111.43 133.66 113.83 133.91 C 114.52 135.62 113.88 137.59 111.99 138.05 Z"
     id="path3642" />
  <path
     fill="#98704a"
     d=" M 120.35 134.36 C 121.28 134.62 122.19 134.91 123.10 135.24 C 123.27 136.91 123.71 138.53 124.15 140.14 C 122.57 140.35 120.96 140.49 119.46 141.07 C 119.69 142.82 119.78 144.59 119.15 146.29 C 117.35 145.63 115.57 144.89 113.95 143.87 C 116.15 140.73 118.97 138.03 120.35 134.36 Z"
     id="path3644" />
  <path
     fill="#a1679d"
     d=" M 151.78 136.03 C 149.65 130.62 156.57 139.34 158.48 136.81 C 164.71 139.49 171.78 137.38 178.32 137.68 C 179.81 138.80 181.24 140.01 182.74 141.12 C 182.87 143.88 186.08 142.70 187.91 143.14 C 188.49 144.41 189.13 145.65 189.64 146.95 C 188.82 147.96 188.05 149.00 187.23 150.00 C 186.92 148.73 187.28 146.54 185.29 147.37 C 182.68 147.41 181.65 143.69 179.07 143.10 C 177.18 144.09 175.34 145.22 173.26 145.77 C 171.49 142.36 167.87 141.07 164.69 139.38 C 163.22 138.35 161.84 141.66 160.53 140.44 C 157.83 137.32 153.76 140.78 150.40 140.80 C 149.71 139.10 148.96 137.44 148.12 135.82 C 149.33 135.93 150.55 136.00 151.78 136.03 Z"
     id="path3646" />
  <path
     fill="#d8afca"
     d=" M 169.81 133.94 C 181.12 136.24 193.38 140.18 200.00 150.37 L 200.00 158.99 L 198.88 158.72 C 198.88 157.99 198.90 156.54 198.91 155.81 C 198.29 152.40 195.86 149.69 192.91 147.99 C 192.23 148.70 191.58 149.44 190.96 150.21 C 190.50 149.13 190.05 148.04 189.64 146.95 C 189.13 145.65 188.49 144.41 187.91 143.14 C 187.48 140.40 184.80 141.08 182.74 141.12 C 181.24 140.01 179.81 138.80 178.32 137.68 C 176.35 134.37 170.15 138.21 169.81 133.94 Z"
     id="path3648" />
  <path
     fill="#844983"
     d=" M 131.95 139.97 C 129.24 131.13 132.73 135.68 135.07 136.59 C 136.36 136.43 137.62 136.16 138.92 136.03 C 138.97 137.80 139.07 141.34 139.13 143.12 C 135.90 144.01 128.77 140.88 132.01 148.11 C 135.57 148.50 132.91 141.69 138.52 144.42 L 139.24 144.22 C 143.74 144.84 138.00 133.54 142.25 136.82 C 144.10 138.93 146.15 136.41 148.12 135.82 C 148.96 137.44 149.71 139.10 150.40 140.80 C 153.76 140.78 157.83 137.32 160.53 140.44 C 161.84 141.66 163.22 138.35 164.69 139.38 C 167.87 141.07 171.49 142.36 173.26 145.77 C 175.34 145.22 177.18 144.09 179.07 143.10 C 181.65 143.69 182.68 147.41 185.29 147.37 C 187.28 146.54 186.92 148.73 187.23 150.00 C 188.05 149.00 188.82 147.96 189.64 146.95 C 190.05 148.04 190.50 149.13 190.96 150.21 C 191.46 151.39 191.78 152.63 191.93 153.90 C 189.44 155.37 190.12 158.36 189.85 160.92 C 185.79 162.27 188.44 156.23 187.87 153.79 C 188.72 150.49 184.88 152.94 183.15 152.89 C 183.06 151.63 182.97 150.37 182.90 149.11 C 181.68 149.75 180.63 150.84 179.21 150.99 C 178.21 149.21 177.59 147.22 176.24 145.66 C 176.07 148.40 175.99 151.15 176.02 153.90 C 176.01 155.23 176.04 156.57 176.08 157.91 C 173.33 158.69 174.20 155.76 173.92 154.08 C 173.87 153.63 173.79 152.72 173.74 152.27 C 168.45 147.68 162.42 142.17 154.97 142.96 C 156.04 144.50 157.32 145.90 158.22 147.56 C 157.13 147.52 155.94 147.09 155.03 147.91 C 151.16 151.21 154.03 143.45 150.85 142.11 C 149.28 142.63 147.78 143.43 146.89 144.88 C 145.79 147.18 142.76 150.05 145.19 152.46 C 144.80 155.44 146.08 158.08 146.97 160.83 C 144.25 164.17 142.00 158.67 139.85 157.32 C 138.05 158.28 136.20 159.49 134.05 158.91 C 134.52 155.97 135.66 152.82 133.80 150.10 C 130.78 149.28 131.09 153.33 130.63 155.20 C 129.37 152.62 128.82 149.78 128.88 146.92 C 130.26 144.51 129.90 141.68 130.02 139.00 C 130.50 139.24 131.47 139.73 131.95 139.97 Z"
     id="path3650" />
  <path
     fill="#765338"
     d=" M 79.62 135.96 C 82.07 135.58 83.83 136.91 85.10 138.86 C 86.47 140.84 88.10 142.64 89.28 144.74 C 90.09 148.92 91.15 153.04 93.04 156.87 C 90.86 158.15 88.10 157.75 85.99 159.17 C 84.07 163.57 88.19 169.06 92.81 167.99 C 93.40 166.94 92.14 163.70 93.92 164.14 C 94.18 165.63 94.71 168.62 94.97 170.12 C 91.14 170.50 87.62 168.78 84.90 166.21 C 81.51 164.28 82.25 160.27 80.95 157.10 C 80.98 155.11 80.49 151.26 82.42 154.70 C 85.39 153.91 87.11 151.16 88.95 148.93 C 89.92 145.29 82.13 148.29 85.49 142.37 C 84.10 140.11 82.34 138.04 79.94 136.82 L 79.62 135.96 Z"
     id="path3652" />
  <path
     fill="#856241"
     d=" M 79.94 136.82 C 82.34 138.04 84.10 140.11 85.49 142.37 C 82.13 148.29 89.92 145.29 88.95 148.93 C 87.11 151.16 85.39 153.91 82.42 154.70 C 80.49 151.26 80.98 155.11 80.95 157.10 C 80.31 155.99 79.70 154.86 79.06 153.74 C 78.88 152.09 79.54 149.57 77.02 149.86 C 77.04 149.21 77.08 147.92 77.10 147.27 C 81.74 145.52 80.43 140.62 79.94 136.82 Z"
     id="path3654" />
  <path
     fill="#452921"
     d=" M 85.10 138.86 C 87.59 140.28 90.41 140.89 92.96 142.14 C 93.25 143.88 93.03 145.53 90.84 145.34 C 90.45 145.19 89.67 144.89 89.28 144.74 C 88.10 142.64 86.47 140.84 85.10 138.86 Z"
     id="path3656" />
  <path
     fill="#e0b598"
     d=" M 124.98 139.04 L 126.03 139.07 L 126.07 140.13 C 126.00 141.93 125.86 145.53 125.79 147.33 C 125.13 144.97 124.85 142.54 124.96 140.05 L 124.98 139.04 Z"
     id="path3658" />
  <path
     fill="#885a50"
     d=" M 127.64 138.82 C 128.28 142.03 127.25 145.26 126.02 148.22 L 125.79 147.33 C 125.86 145.53 126.00 141.93 126.07 140.13 C 126.47 139.80 127.25 139.15 127.64 138.82 Z"
     id="path3660" />
  <path
     fill="#573529"
     d=" M 104.03 140.88 C 105.35 140.44 106.70 140.08 108.07 139.81 C 109.74 140.53 111.42 141.23 113.01 142.14 C 112.40 143.23 111.67 144.26 110.91 145.25 C 108.50 145.50 107.30 147.05 108.68 149.30 C 110.46 154.46 109.57 160.22 111.88 165.32 C 111.16 165.91 110.43 166.49 109.69 167.07 C 107.84 168.15 106.03 169.34 103.98 170.01 C 105.75 167.94 104.13 167.75 102.06 167.95 C 101.33 163.79 97.31 162.35 94.39 159.90 C 94.60 158.29 94.89 156.69 95.05 155.07 C 99.21 156.22 103.03 157.96 106.02 161.14 C 110.11 159.75 107.03 154.81 105.89 152.09 C 104.41 148.56 104.54 144.62 104.03 140.88 Z"
     id="path3662" />
  <path
     fill="#a27560"
     d=" M 119.46 141.07 C 120.96 140.49 122.57 140.35 124.15 140.14 L 124.96 140.05 C 124.85 142.54 125.13 144.97 125.79 147.33 L 126.02 148.22 C 124.48 151.54 122.58 154.67 120.90 157.93 C 119.38 159.51 117.82 161.05 116.07 162.38 L 115.07 162.03 C 114.97 157.08 118.24 152.86 118.77 147.97 C 118.87 147.55 119.06 146.71 119.15 146.29 C 119.78 144.59 119.69 142.82 119.46 141.07 Z"
     id="path3664" />
  <path
     fill="#42221d"
     d=" M 100.98 141.06 C 104.75 144.88 96.77 152.90 93.51 146.95 C 94.77 145.10 96.80 145.68 98.68 145.75 C 99.51 144.21 100.24 142.63 100.98 141.06 Z"
     id="path3666" />
  <path
     fill="#b892b2"
     d=" M 182.74 141.12 C 184.80 141.08 187.48 140.40 187.91 143.14 C 186.08 142.70 182.87 143.88 182.74 141.12 Z"
     id="path3668" />
  <path
     fill="#783e77"
     d=" M 146.89 144.88 C 147.78 143.43 149.28 142.63 150.85 142.11 C 154.03 143.45 151.16 151.21 155.03 147.91 C 154.69 149.86 153.43 152.11 151.19 152.09 C 151.16 149.58 152.33 146.57 150.91 144.36 C 149.57 144.50 148.23 144.72 146.89 144.88 Z"
     id="path3670" />
  <path
     fill="#733772"
     d=" M 132.01 148.11 C 128.77 140.88 135.90 144.01 139.13 143.12 L 139.24 144.22 L 138.52 144.42 C 132.91 141.69 135.57 148.50 132.01 148.11 Z"
     id="path3672" />
  <path
     fill="#6d356c"
     d=" M 154.97 142.96 C 162.42 142.17 168.45 147.68 173.74 152.27 C 173.79 152.72 173.87 153.63 173.92 154.08 C 172.34 154.34 170.75 154.33 169.16 154.17 C 171.03 155.99 170.71 158.11 168.84 159.82 C 166.64 159.77 163.61 157.82 162.12 160.24 C 161.37 163.37 163.92 165.82 166.92 165.94 C 172.01 166.00 170.61 172.55 173.85 174.26 C 174.02 175.82 174.01 177.40 174.06 178.98 C 169.78 177.99 167.01 173.97 163.97 171.03 C 161.22 169.07 163.11 164.60 159.85 163.13 C 157.89 162.14 158.06 159.93 157.74 158.07 C 156.13 158.35 154.56 158.80 152.99 159.23 C 153.49 161.37 156.68 164.26 153.93 165.95 C 151.31 167.09 153.08 169.91 153.20 171.99 C 154.51 172.06 155.91 171.94 156.89 170.96 C 156.32 169.89 155.65 168.89 155.07 167.84 C 159.81 167.57 159.83 174.05 163.88 175.18 C 165.71 175.65 166.62 177.26 167.25 178.91 C 164.09 179.14 161.05 177.98 157.91 178.08 C 151.99 180.14 151.49 171.78 148.68 168.33 C 145.83 166.51 142.77 164.27 139.24 164.35 C 137.75 163.37 136.54 162.05 135.12 160.98 C 133.73 163.01 136.15 168.23 132.36 166.88 C 132.03 164.11 132.04 161.02 130.35 158.68 C 130.22 160.31 129.96 163.55 129.83 165.18 C 126.50 163.11 127.90 158.35 125.24 155.79 C 125.90 153.72 125.24 150.47 127.77 149.68 C 127.99 150.89 125.81 154.61 128.32 153.44 C 130.36 153.07 126.97 157.02 129.17 157.47 C 131.04 157.04 132.79 157.35 134.05 158.91 C 136.20 159.49 138.05 158.28 139.85 157.32 C 142.00 158.67 144.25 164.17 146.97 160.83 C 146.08 158.08 144.80 155.44 145.19 152.46 C 142.76 150.05 145.79 147.18 146.89 144.88 C 148.23 144.72 149.57 144.50 150.91 144.36 C 152.33 146.57 151.16 149.58 151.19 152.09 C 153.43 152.11 154.69 149.86 155.03 147.91 C 155.94 147.09 157.13 147.52 158.22 147.56 C 157.32 145.90 156.04 144.50 154.97 142.96 Z"
     id="path3674" />
  <path
     fill="#68442e"
     d=" M 89.28 144.74 C 89.67 144.89 90.45 145.19 90.84 145.34 C 91.11 145.80 91.66 146.70 91.94 147.15 C 92.82 149.86 93.27 152.76 95.05 155.07 C 94.89 156.69 94.60 158.29 94.39 159.90 C 97.31 162.35 101.33 163.79 102.06 167.95 C 99.95 168.43 97.96 169.30 95.98 170.17 L 94.97 170.12 C 94.71 168.62 94.18 165.63 93.92 164.14 C 92.14 163.70 93.40 166.94 92.81 167.99 C 88.19 169.06 84.07 163.57 85.99 159.17 C 88.10 157.75 90.86 158.15 93.04 156.87 C 91.15 153.04 90.09 148.92 89.28 144.74 Z"
     id="path3676" />
  <path
     fill="#6e4d37"
     d=" M 108.68 149.30 C 107.30 147.05 108.50 145.50 110.91 145.25 C 111.37 146.18 112.07 146.95 112.82 147.67 C 112.55 148.40 110.36 149.51 111.93 150.05 C 110.42 154.82 112.24 159.50 113.28 164.18 C 112.93 164.46 112.23 165.03 111.88 165.32 C 109.57 160.22 110.46 154.46 108.68 149.30 Z"
     id="path3678" />
  <path
     fill="#6a326a"
     d=" M 176.24 145.66 C 177.59 147.22 178.21 149.21 179.21 150.99 C 180.63 150.84 181.68 149.75 182.90 149.11 C 182.97 150.37 183.06 151.63 183.15 152.89 C 184.88 152.94 188.72 150.49 187.87 153.79 C 187.99 157.50 185.24 160.72 185.45 164.36 C 188.53 168.17 185.26 169.11 183.22 170.29 C 183.19 169.73 183.11 168.59 183.08 168.03 C 183.21 163.63 180.96 159.66 180.71 155.30 C 179.16 154.78 177.59 154.34 176.02 153.90 C 175.99 151.15 176.07 148.40 176.24 145.66 Z"
     id="path3680" />
  <path
     fill="#936f49"
     d=" M 112.82 147.67 C 114.81 147.19 116.80 147.67 118.77 147.97 C 118.24 152.86 114.97 157.08 115.07 162.03 C 111.39 159.82 117.09 151.69 111.93 150.05 C 110.36 149.51 112.55 148.40 112.82 147.67 Z"
     id="path3682" />
  <path
     fill="#773b73"
     d=" M 127.77 149.68 C 128.11 148.75 128.48 147.83 128.88 146.92 C 128.82 149.78 129.37 152.62 130.63 155.20 C 131.09 153.33 130.78 149.28 133.80 150.10 C 135.66 152.82 134.52 155.97 134.05 158.91 C 132.79 157.35 131.04 157.04 129.17 157.47 C 126.97 157.02 130.36 153.07 128.32 153.44 C 125.81 154.61 127.99 150.89 127.77 149.68 Z"
     id="path3684" />
  <path
     fill="#ac78aa"
     d=" M 190.96 150.21 C 191.58 149.44 192.23 148.70 192.91 147.99 C 195.86 149.69 198.29 152.40 198.91 155.81 C 194.76 156.02 197.40 161.87 197.20 164.64 C 197.58 164.80 198.34 165.12 198.72 165.29 C 198.86 168.24 199.06 171.24 198.92 174.21 C 198.25 173.14 197.67 172.02 197.07 170.92 L 196.87 170.16 C 197.38 166.74 195.49 163.81 194.02 160.90 C 191.71 157.54 198.22 153.19 194.34 150.93 C 194.01 152.43 194.08 154.45 191.93 153.90 C 191.78 152.63 191.46 151.39 190.96 150.21 Z"
     id="path3686" />
  <path
     fill="#5f295e"
     d=" M 72.11 151.00 C 72.57 150.72 73.49 150.16 73.95 149.88 C 74.86 150.72 75.78 151.56 76.88 152.16 L 76.86 152.92 C 76.09 153.57 75.34 154.24 74.60 154.93 C 72.87 155.93 72.75 157.94 73.30 159.69 C 74.41 163.29 74.45 167.31 76.34 170.65 C 78.45 172.31 80.56 174.02 83.06 175.06 C 85.43 176.99 90.05 175.99 90.40 179.75 C 93.19 179.63 95.95 179.16 98.74 178.87 C 103.96 179.40 108.59 176.30 113.10 174.10 C 113.58 173.79 114.54 173.18 115.02 172.87 C 117.23 172.45 117.17 174.28 116.99 175.91 C 114.37 178.00 111.38 179.73 108.05 180.33 C 108.26 180.83 108.67 181.84 108.87 182.35 C 108.66 182.75 108.22 183.56 108.01 183.96 L 107.15 183.98 C 107.63 180.14 99.37 180.75 99.88 184.01 C 94.85 183.40 89.79 183.94 85.30 186.32 C 83.94 187.30 82.46 186.30 81.11 185.89 C 82.06 183.10 83.73 180.66 86.11 178.92 C 81.90 175.20 72.91 174.68 72.60 167.40 C 72.18 167.26 71.34 166.99 70.92 166.85 C 69.06 164.70 69.16 161.78 69.06 159.11 C 69.83 156.27 74.06 154.06 72.11 151.00 Z"
     id="path3688" />
  <path
     fill="#ca9f89"
     d=" M 77.02 149.86 C 79.54 149.57 78.88 152.09 79.06 153.74 C 77.32 156.01 80.62 160.74 77.25 161.08 C 77.12 160.38 76.87 158.99 76.74 158.29 C 76.82 156.50 76.88 154.71 76.86 152.92 L 76.88 152.16 C 76.91 151.59 76.98 150.43 77.02 149.86 Z"
     id="path3690" />
  <path
     fill="#816040"
     d=" M 111.93 150.05 C 117.09 151.69 111.39 159.82 115.07 162.03 L 116.07 162.38 C 115.83 162.69 115.34 163.30 115.10 163.60 C 114.64 163.74 113.74 164.03 113.28 164.18 C 112.24 159.50 110.42 154.82 111.93 150.05 Z"
     id="path3692" />
  <path
     fill="#725569"
     d=" M 64.71 158.67 C 66.44 155.51 69.17 153.02 72.11 151.00 C 74.06 154.06 69.83 156.27 69.06 159.11 L 68.28 158.84 C 67.15 158.34 65.89 158.72 64.71 158.67 Z"
     id="path3694" />
  <path
     fill="#7c467b"
     d=" M 194.34 150.93 C 198.22 153.19 191.71 157.54 194.02 160.90 C 192.93 158.69 192.61 156.24 191.93 153.90 C 194.08 154.45 194.01 152.43 194.34 150.93 Z"
     id="path3696" />
  <path
     fill="#87536d"
     d=" M 74.60 154.93 C 75.34 154.24 76.09 153.57 76.86 152.92 C 76.88 154.71 76.82 156.50 76.74 158.29 C 75.96 157.21 75.23 156.10 74.60 154.93 Z"
     id="path3698" />
  <path
     fill="#a47a5f"
     d=" M 79.06 153.74 C 79.70 154.86 80.31 155.99 80.95 157.10 C 82.25 160.27 81.51 164.28 84.90 166.21 C 85.82 169.06 84.03 168.93 81.85 168.17 C 80.92 167.42 80.05 166.61 79.17 165.82 C 78.51 164.25 77.77 162.71 77.25 161.08 C 80.62 160.74 77.32 156.01 79.06 153.74 Z"
     id="path3700" />
  <path
     fill="#5c255c"
     d=" M 169.16 154.17 C 170.75 154.33 172.34 154.34 173.92 154.08 C 174.20 155.76 173.33 158.69 176.08 157.91 C 176.04 159.57 176.00 161.24 175.98 162.91 C 174.61 162.67 173.22 162.54 171.86 162.89 C 170.90 162.25 169.98 161.54 168.97 160.98 C 166.56 161.32 167.09 164.18 166.92 165.94 C 163.92 165.82 161.37 163.37 162.12 160.24 C 163.61 157.82 166.64 159.77 168.84 159.82 C 170.71 158.11 171.03 155.99 169.16 154.17 Z"
     id="path3702" />
  <path
     fill="#5b245b"
     d=" M 176.02 153.90 C 177.59 154.34 179.16 154.78 180.71 155.30 C 180.96 159.66 183.21 163.63 183.08 168.03 C 182.47 168.09 181.27 168.23 180.67 168.29 C 179.96 166.67 180.44 164.01 178.14 163.75 C 177.93 161.62 178.39 159.00 176.08 157.91 C 176.04 156.57 176.01 155.23 176.02 153.90 Z"
     id="path3704" />
  <path
     fill="#5a2559"
     d=" M 185.45 164.36 C 185.24 160.72 187.99 157.50 187.87 153.79 C 188.44 156.23 185.79 162.27 189.85 160.92 C 190.12 158.36 189.44 155.37 191.93 153.90 C 192.61 156.24 192.93 158.69 194.02 160.90 C 195.49 163.81 197.38 166.74 196.87 170.16 C 195.84 168.39 195.01 166.53 194.08 164.71 C 191.49 169.63 197.17 172.82 195.30 177.53 C 193.41 182.77 195.13 188.54 193.92 193.93 C 193.48 193.95 192.59 193.98 192.15 194.00 C 190.57 188.29 193.09 182.04 190.16 176.76 C 190.08 176.01 189.92 174.52 189.85 173.78 C 190.55 170.42 189.02 167.36 187.16 164.69 C 186.34 169.28 187.45 173.74 188.27 178.19 C 188.18 180.80 188.09 183.41 188.00 186.03 C 183.40 187.24 185.46 182.58 185.92 179.94 C 184.31 180.92 182.90 182.19 181.25 183.10 C 180.95 181.42 180.69 179.74 180.36 178.07 C 181.17 176.52 182.77 175.15 182.40 173.25 C 182.68 172.26 182.95 171.28 183.22 170.29 C 185.26 169.11 188.53 168.17 185.45 164.36 Z"
     id="path3706" />
  <path
     fill="#531a50"
     d=" M 73.30 159.69 C 72.75 157.94 72.87 155.93 74.60 154.93 C 75.23 156.10 75.96 157.21 76.74 158.29 C 76.87 158.99 77.12 160.38 77.25 161.08 C 77.77 162.71 78.51 164.25 79.17 165.82 C 78.59 165.64 77.43 165.28 76.86 165.10 C 76.92 169.36 81.69 171.25 83.06 175.06 C 80.56 174.02 78.45 172.31 76.34 170.65 C 74.45 167.31 74.41 163.29 73.30 159.69 Z"
     id="path3708" />
  <path
     fill="#662f65"
     d=" M 125.24 155.79 C 127.90 158.35 126.50 163.11 129.83 165.18 C 129.96 163.55 130.22 160.31 130.35 158.68 C 132.04 161.02 132.03 164.11 132.36 166.88 C 136.15 168.23 133.73 163.01 135.12 160.98 C 136.54 162.05 137.75 163.37 139.24 164.35 C 142.77 164.27 145.83 166.51 148.68 168.33 C 151.49 171.78 151.99 180.14 157.91 178.08 C 156.81 179.59 157.99 180.72 159.07 181.77 C 157.67 181.99 155.70 181.75 155.92 183.77 C 152.87 182.36 151.78 178.52 149.03 177.04 C 146.44 178.71 145.71 182.80 146.83 185.76 C 141.94 184.82 141.98 190.02 140.11 193.04 C 142.75 194.51 143.36 197.13 143.14 200.00 L 119.58 200.00 C 120.42 196.11 126.01 197.71 128.56 195.85 C 128.50 194.55 127.75 192.98 129.20 192.17 C 130.96 192.16 132.31 193.70 134.00 194.12 C 134.86 190.38 130.88 188.54 129.73 185.34 C 126.24 185.53 124.34 182.81 122.72 180.16 C 117.61 180.67 113.30 184.39 108.01 183.96 C 108.22 183.56 108.66 182.75 108.87 182.35 C 114.12 182.51 117.51 177.96 122.09 176.11 C 124.74 175.16 126.34 172.77 126.86 170.09 C 125.01 169.43 123.07 169.11 121.15 168.77 C 121.98 166.89 123.05 165.12 123.78 163.20 C 122.86 162.28 121.87 161.45 120.88 160.62 C 120.90 160.23 120.93 159.45 120.95 159.05 C 122.78 158.59 123.94 157.03 125.24 155.79 Z"
     id="path3710" />
  <path
     fill="#865283"
     d=" M 197.20 164.64 C 197.40 161.87 194.76 156.02 198.91 155.81 C 198.90 156.54 198.88 157.99 198.88 158.72 C 198.69 160.90 198.64 163.09 198.72 165.29 C 198.34 165.12 197.58 164.80 197.20 164.64 Z"
     id="path3712" />
  <path
     fill="#90698b"
     d=" M 64.71 158.67 C 65.89 158.72 67.15 158.34 68.28 158.84 L 68.13 159.76 C 63.54 161.79 62.44 167.21 58.14 169.62 C 55.56 172.22 53.26 175.10 50.55 177.57 C 49.38 179.61 48.82 182.61 46.09 183.11 C 43.60 183.70 41.54 185.02 40.18 187.21 C 41.11 184.45 41.79 181.46 43.57 179.10 C 45.60 180.43 50.39 176.36 47.96 174.56 C 53.56 169.28 59.63 164.50 64.71 158.67 Z"
     id="path3714" />
  <path
     fill="#491444"
     d=" M 116.07 162.38 C 117.82 161.05 119.38 159.51 120.90 157.93 L 120.95 159.05 C 120.93 159.45 120.90 160.23 120.88 160.62 C 119.04 162.41 119.62 164.51 120.43 166.62 C 118.66 168.73 117.01 170.96 115.02 172.87 C 114.54 173.18 113.58 173.79 113.10 174.10 C 111.79 173.81 110.53 173.21 109.17 173.20 C 105.86 175.40 101.74 176.18 98.74 178.87 C 95.95 179.16 93.19 179.63 90.40 179.75 C 90.05 175.99 85.43 176.99 83.06 175.06 C 81.69 171.25 76.92 169.36 76.86 165.10 C 77.43 165.28 78.59 165.64 79.17 165.82 C 80.05 166.61 80.92 167.42 81.85 168.17 C 85.67 171.56 90.96 173.12 96.01 173.06 C 99.02 173.21 101.25 170.86 103.98 170.01 C 106.03 169.34 107.84 168.15 109.69 167.07 C 112.08 170.88 117.77 166.98 115.10 163.60 C 115.34 163.30 115.83 162.69 116.07 162.38 Z"
     id="path3716" />
  <path
     fill="#7d457b"
     d=" M 152.99 159.23 C 154.56 158.80 156.13 158.35 157.74 158.07 C 158.06 159.93 157.89 162.14 159.85 163.13 C 163.11 164.60 161.22 169.07 163.97 171.03 C 167.01 173.97 169.78 177.99 174.06 178.98 C 177.00 179.51 176.72 183.57 178.06 185.77 C 177.59 185.77 176.66 185.79 176.19 185.79 C 175.52 185.14 174.85 184.51 174.17 183.88 C 172.13 181.88 169.66 180.41 167.25 178.91 C 166.62 177.26 165.71 175.65 163.88 175.18 C 159.83 174.05 159.81 167.57 155.07 167.84 C 155.65 168.89 156.32 169.89 156.89 170.96 C 155.91 171.94 154.51 172.06 153.20 171.99 C 153.08 169.91 151.31 167.09 153.93 165.95 C 156.68 164.26 153.49 161.37 152.99 159.23 Z"
     id="path3718" />
  <path
     fill="#814a80"
     d=" M 176.08 157.91 C 178.39 159.00 177.93 161.62 178.14 163.75 L 177.12 163.86 L 176.02 163.94 L 175.98 162.91 C 176.00 161.24 176.04 159.57 176.08 157.91 Z"
     id="path3720" />
  <path
     fill="#6b336a"
     d=" M 68.28 158.84 L 69.06 159.11 C 69.16 161.78 69.06 164.70 70.92 166.85 C 70.64 170.91 73.91 173.82 76.25 176.75 C 77.30 178.62 79.62 176.68 80.93 178.18 C 81.28 179.85 79.48 180.56 78.60 181.62 C 80.76 191.99 75.02 180.73 74.11 185.74 C 75.71 186.41 78.44 188.65 75.31 189.40 C 73.04 191.65 69.10 189.41 67.33 192.29 C 67.07 194.82 67.01 197.54 66.17 200.00 L 37.79 200.00 C 37.02 196.11 40.54 198.27 42.27 196.30 C 44.60 193.85 50.75 199.53 47.10 190.84 C 46.40 188.68 49.48 191.21 48.79 192.05 C 48.80 193.36 47.94 194.91 49.20 195.91 C 52.62 196.94 53.00 192.67 54.09 190.43 C 54.28 187.94 54.33 185.49 56.76 184.04 C 56.01 187.67 59.48 185.36 60.41 187.65 C 61.22 190.40 64.25 186.93 64.01 185.26 C 63.26 185.13 61.75 184.87 61.00 184.74 C 61.75 182.96 62.73 181.25 62.56 179.25 C 64.37 178.89 67.48 178.86 67.03 176.19 C 66.53 176.20 65.53 176.20 65.04 176.20 C 61.53 172.86 69.29 171.72 68.04 168.03 C 68.63 165.37 62.05 169.91 64.53 166.51 C 67.01 164.98 68.60 162.82 68.13 159.76 L 68.28 158.84 Z"
     id="path3722" />
  <path
     fill="#663762"
     d=" M 198.72 165.29 C 198.64 163.09 198.69 160.90 198.88 158.72 L 200.00 158.99 L 200.00 188.41 C 199.85 182.40 197.07 176.92 197.07 170.92 C 197.67 172.02 198.25 173.14 198.92 174.21 C 199.06 171.24 198.86 168.24 198.72 165.29 Z"
     id="path3724" />
  <path
     fill="#814680"
     d=" M 58.14 169.62 C 62.44 167.21 63.54 161.79 68.13 159.76 C 68.60 162.82 67.01 164.98 64.53 166.51 C 62.05 169.91 68.63 165.37 68.04 168.03 C 69.29 171.72 61.53 172.86 65.04 176.20 C 64.92 176.57 64.69 177.30 64.57 177.67 C 60.16 176.20 58.81 179.65 58.73 182.72 C 55.88 181.40 55.08 185.31 52.27 184.29 C 52.95 186.38 51.05 190.06 54.09 190.43 C 53.00 192.67 52.62 196.94 49.20 195.91 C 47.94 194.91 48.80 193.36 48.79 192.05 C 49.48 191.21 46.40 188.68 47.10 190.84 C 50.75 199.53 44.60 193.85 42.27 196.30 C 40.54 198.27 37.02 196.11 37.79 200.00 L 31.93 200.00 C 33.30 198.02 34.21 195.74 35.75 193.88 C 39.70 194.62 40.85 190.06 42.51 187.42 C 44.45 186.57 46.55 186.17 48.56 185.53 C 51.01 182.53 51.75 177.81 55.52 176.13 C 57.66 174.56 59.39 172.31 58.14 169.62 Z"
     id="path3726" />
  <path
     fill="#561e56"
     d=" M 120.43 166.62 C 119.62 164.51 119.04 162.41 120.88 160.62 C 121.87 161.45 122.86 162.28 123.78 163.20 C 123.05 165.12 121.98 166.89 121.15 168.77 C 123.07 169.11 125.01 169.43 126.86 170.09 C 126.34 172.77 124.74 175.16 122.09 176.11 C 117.51 177.96 114.12 182.51 108.87 182.35 C 108.67 181.84 108.26 180.83 108.05 180.33 C 111.38 179.73 114.37 178.00 116.99 175.91 C 117.17 174.28 117.23 172.45 115.02 172.87 C 117.01 170.96 118.66 168.73 120.43 166.62 Z"
     id="path3728" />
  <path
     fill="#521b51"
     d=" M 166.92 165.94 C 167.09 164.18 166.56 161.32 168.97 160.98 C 169.98 161.54 170.90 162.25 171.86 162.89 C 171.87 166.79 173.34 170.44 173.85 174.26 C 170.61 172.55 172.01 166.00 166.92 165.94 Z"
     id="path3730" />
  <path
     fill="#400d3e"
     d=" M 171.86 162.89 C 173.22 162.54 174.61 162.67 175.98 162.91 L 176.02 163.94 C 176.31 166.66 174.50 171.01 178.10 171.52 C 178.86 173.70 179.79 175.82 180.36 178.07 C 180.69 179.74 180.95 181.42 181.25 183.10 C 182.90 182.19 184.31 180.92 185.92 179.94 C 185.46 182.58 183.40 187.24 188.00 186.03 L 187.97 186.94 C 187.29 187.01 185.93 187.16 185.25 187.23 C 188.24 190.43 181.14 195.42 180.31 191.23 C 181.55 189.17 180.48 186.25 178.06 185.77 C 176.72 183.57 177.00 179.51 174.06 178.98 C 174.01 177.40 174.02 175.82 173.85 174.26 C 173.34 170.44 171.87 166.79 171.86 162.89 Z"
     id="path3732" />
  <path
     fill="#3c0f2c"
     d=" M 113.28 164.18 C 113.74 164.03 114.64 163.74 115.10 163.60 C 117.77 166.98 112.08 170.88 109.69 167.07 C 110.43 166.49 111.16 165.91 111.88 165.32 C 112.23 165.03 112.93 164.46 113.28 164.18 Z"
     id="path3734" />
  <path
     fill="#582456"
     d=" M 176.02 163.94 L 177.12 163.86 C 177.58 166.38 179.06 169.00 178.10 171.52 C 174.50 171.01 176.31 166.66 176.02 163.94 Z"
     id="path3736" />
  <path
     fill="#693367"
     d=" M 177.12 163.86 L 178.14 163.75 C 180.44 164.01 179.96 166.67 180.67 168.29 C 181.00 170.02 181.49 171.72 182.40 173.25 C 182.77 175.15 181.17 176.52 180.36 178.07 C 179.79 175.82 178.86 173.70 178.10 171.52 C 179.06 169.00 177.58 166.38 177.12 163.86 Z"
     id="path3738" />
  <path
     fill="#451046"
     d=" M 187.16 164.69 C 189.02 167.36 190.55 170.42 189.85 173.78 C 189.28 175.23 188.79 176.72 188.27 178.19 C 187.45 173.74 186.34 169.28 187.16 164.69 Z"
     id="path3740" />
  <path
     fill="#451142"
     d=" M 194.08 164.71 C 195.01 166.53 195.84 168.39 196.87 170.16 L 197.07 170.92 C 197.07 176.92 199.85 182.40 200.00 188.41 L 200.00 200.00 L 191.07 200.00 C 190.89 192.24 189.89 184.52 190.16 176.76 C 193.09 182.04 190.57 188.29 192.15 194.00 C 192.59 193.98 193.48 193.95 193.92 193.93 C 195.13 188.54 193.41 182.77 195.30 177.53 C 197.17 172.82 191.49 169.63 194.08 164.71 Z"
     id="path3742" />
  <path
     fill="#8d635e"
     d=" M 84.90 166.21 C 87.62 168.78 91.14 170.50 94.97 170.12 L 95.98 170.17 C 95.99 170.89 96.01 172.33 96.01 173.06 C 90.96 173.12 85.67 171.56 81.85 168.17 C 84.03 168.93 85.82 169.06 84.90 166.21 Z"
     id="path3744" />
  <path
     fill="#652e64"
     d=" M 70.92 166.85 C 71.34 166.99 72.18 167.26 72.60 167.40 C 72.91 174.68 81.90 175.20 86.11 178.92 C 83.73 180.66 82.06 183.10 81.11 185.89 C 82.46 186.30 83.94 187.30 85.30 186.32 C 89.79 183.94 94.85 183.40 99.88 184.01 C 100.46 184.06 101.61 184.15 102.19 184.19 C 97.62 185.05 91.47 184.17 88.97 189.01 C 87.58 190.67 90.41 194.26 87.29 194.22 C 84.09 194.01 84.78 197.68 84.06 200.00 L 66.17 200.00 C 67.01 197.54 67.07 194.82 67.33 192.29 C 69.10 189.41 73.04 191.65 75.31 189.40 C 78.44 188.65 75.71 186.41 74.11 185.74 C 75.02 180.73 80.76 191.99 78.60 181.62 C 79.48 180.56 81.28 179.85 80.93 178.18 C 79.62 176.68 77.30 178.62 76.25 176.75 C 73.91 173.82 70.64 170.91 70.92 166.85 Z"
     id="path3746" />
  <path
     fill="#734e4d"
     d=" M 95.98 170.17 C 97.96 169.30 99.95 168.43 102.06 167.95 C 104.13 167.75 105.75 167.94 103.98 170.01 C 101.25 170.86 99.02 173.21 96.01 173.06 C 96.01 172.33 95.99 170.89 95.98 170.17 Z"
     id="path3748" />
  <path
     fill="#480e46"
     d=" M 180.67 168.29 C 181.27 168.23 182.47 168.09 183.08 168.03 C 183.11 168.59 183.19 169.73 183.22 170.29 C 182.95 171.28 182.68 172.26 182.40 173.25 C 181.49 171.72 181.00 170.02 180.67 168.29 Z"
     id="path3750" />
  <path
     fill="#8b518b"
     d=" M 50.55 177.57 C 53.26 175.10 55.56 172.22 58.14 169.62 C 59.39 172.31 57.66 174.56 55.52 176.13 C 51.75 177.81 51.01 182.53 48.56 185.53 C 46.55 186.17 44.45 186.57 42.51 187.42 C 40.85 190.06 39.70 194.62 35.75 193.88 C 37.24 191.67 38.97 189.60 40.18 187.21 C 41.54 185.02 43.60 183.70 46.09 183.11 C 48.82 182.61 49.38 179.61 50.55 177.57 Z"
     id="path3752" />
  <path
     fill="#541c53"
     d=" M 98.74 178.87 C 101.74 176.18 105.86 175.40 109.17 173.20 C 110.53 173.21 111.79 173.81 113.10 174.10 C 108.59 176.30 103.96 179.40 98.74 178.87 Z"
     id="path3754" />
  <path
     fill="#290627"
     d=" M 188.27 178.19 C 188.79 176.72 189.28 175.23 189.85 173.78 C 189.92 174.52 190.08 176.01 190.16 176.76 C 189.89 184.52 190.89 192.24 191.07 200.00 L 185.97 200.00 C 186.67 195.65 187.68 191.33 187.97 186.94 L 188.00 186.03 C 188.09 183.41 188.18 180.80 188.27 178.19 Z"
     id="path3756" />
  <path
     fill="#6c545f"
     d=" M 43.57 179.10 C 44.91 177.47 46.44 176.01 47.96 174.56 C 50.39 176.36 45.60 180.43 43.57 179.10 Z"
     id="path3758" />
  <path
     fill="#753972"
     d=" M 65.04 176.20 C 65.53 176.20 66.53 176.20 67.03 176.19 C 67.48 178.86 64.37 178.89 62.56 179.25 C 62.73 181.25 61.75 182.96 61.00 184.74 C 61.75 184.87 63.26 185.13 64.01 185.26 C 64.25 186.93 61.22 190.40 60.41 187.65 C 59.48 185.36 56.01 187.67 56.76 184.04 C 54.33 185.49 54.28 187.94 54.09 190.43 C 51.05 190.06 52.95 186.38 52.27 184.29 C 55.08 185.31 55.88 181.40 58.73 182.72 C 58.81 179.65 60.16 176.20 64.57 177.67 C 64.69 177.30 64.92 176.57 65.04 176.20 Z"
     id="path3760" />
  <path
     fill="#5c245b"
     d=" M 146.83 185.76 C 145.71 182.80 146.44 178.71 149.03 177.04 C 151.78 178.52 152.87 182.36 155.92 183.77 C 160.09 186.29 162.74 190.63 167.15 192.84 C 164.89 192.63 161.70 190.82 160.12 193.24 C 159.09 196.03 162.38 196.69 164.09 197.91 C 164.85 198.60 165.60 199.29 166.35 200.00 L 143.14 200.00 C 143.36 197.13 142.75 194.51 140.11 193.04 C 141.98 190.02 141.94 184.82 146.83 185.76 Z"
     id="path3762" />
  <path
     fill="#5d275c"
     d=" M 157.91 178.08 C 161.05 177.98 164.09 179.14 167.25 178.91 C 169.66 180.41 172.13 181.88 174.17 183.88 C 171.14 183.09 168.18 181.84 164.97 182.01 C 163.70 187.67 171.24 184.83 173.79 188.18 C 178.27 190.44 178.99 195.46 179.16 200.00 L 176.33 200.00 C 174.53 198.85 172.60 197.88 171.03 196.41 C 171.27 196.05 171.75 195.33 171.99 194.97 C 167.87 190.40 163.98 185.57 159.07 181.77 C 157.99 180.72 156.81 179.59 157.91 178.08 Z"
     id="path3764" />
  <path
     fill="#6b346a"
     d=" M 108.01 183.96 C 113.30 184.39 117.61 180.67 122.72 180.16 C 124.34 182.81 126.24 185.53 129.73 185.34 C 130.88 188.54 134.86 190.38 134.00 194.12 C 132.31 193.70 130.96 192.16 129.20 192.17 C 127.75 192.98 128.50 194.55 128.56 195.85 C 126.01 197.71 120.42 196.11 119.58 200.00 L 84.06 200.00 C 84.78 197.68 84.09 194.01 87.29 194.22 C 90.41 194.26 87.58 190.67 88.97 189.01 C 91.47 184.17 97.62 185.05 102.19 184.19 C 103.84 184.10 105.50 184.04 107.15 183.98 L 108.01 183.96 Z"
     id="path3766" />
  <path
     fill="#501850"
     d=" M 99.88 184.01 C 99.37 180.75 107.63 180.14 107.15 183.98 C 105.50 184.04 103.84 184.10 102.19 184.19 C 101.61 184.15 100.46 184.06 99.88 184.01 Z"
     id="path3768" />
  <path
     fill="#763f74"
     d=" M 155.92 183.77 C 155.70 181.75 157.67 181.99 159.07 181.77 C 163.98 185.57 167.87 190.40 171.99 194.97 C 171.75 195.33 171.27 196.05 171.03 196.41 C 170.57 196.00 169.65 195.18 169.18 194.77 C 168.53 194.10 167.85 193.45 167.15 192.84 C 162.74 190.63 160.09 186.29 155.92 183.77 Z"
     id="path3770" />
  <path
     fill="#4c144c"
     d=" M 164.97 182.01 C 168.18 181.84 171.14 183.09 174.17 183.88 C 174.85 184.51 175.52 185.14 176.19 185.79 C 174.12 185.70 172.26 185.88 173.79 188.18 C 171.24 184.83 163.70 187.67 164.97 182.01 Z"
     id="path3772" />
  <path
     fill="#360a36"
     d=" M 173.79 188.18 C 172.26 185.88 174.12 185.70 176.19 185.79 C 176.66 185.79 177.59 185.77 178.06 185.77 C 177.90 187.89 179.35 189.48 180.31 191.23 C 181.14 195.42 188.24 190.43 185.25 187.23 C 185.93 187.16 187.29 187.01 187.97 186.94 C 187.68 191.33 186.67 195.65 185.97 200.00 L 179.16 200.00 C 178.99 195.46 178.27 190.44 173.79 188.18 Z"
     id="path3774" />
  <path
     fill="#643a65"
     d=" M 178.06 185.77 C 180.48 186.25 181.55 189.17 180.31 191.23 C 179.35 189.48 177.90 187.89 178.06 185.77 Z"
     id="path3776" />
  <path
     fill="#4f194f"
     d=" M 160.12 193.24 C 161.70 190.82 164.89 192.63 167.15 192.84 C 167.85 193.45 168.53 194.10 169.18 194.77 C 165.44 194.36 161.59 193.98 164.09 197.91 C 162.38 196.69 159.09 196.03 160.12 193.24 Z"
     id="path3778" />
  <path
     fill="#3d0b3c"
     d=" M 164.09 197.91 C 161.59 193.98 165.44 194.36 169.18 194.77 C 169.65 195.18 170.57 196.00 171.03 196.41 C 172.60 197.88 174.53 198.85 176.33 200.00 L 166.35 200.00 C 165.60 199.29 164.85 198.60 164.09 197.91 Z"
     id="path3780" />
</svg>
